<?xml version="1.0" standalone="no"?>
<!DOCTYPE svg PUBLIC "-//W3C//DTD SVG 20010904//EN"
 "http://www.w3.org/TR/2001/REC-SVG-20010904/DTD/svg10.dtd">
<svg version="1.0" xmlns="http://www.w3.org/2000/svg"
 width="193.000000pt" height="136.000000pt" viewBox="0 0 193.000000 136.000000"
 preserveAspectRatio="xMidYMid meet">
<metadata>
Created by potrace 1.12, written by Peter Selinger 2001-2015
</metadata>
<g transform="translate(0.000000,136.000000) scale(0.100000,-0.100000)"
fill="#000000" stroke="none">
<path d="M970 1150 l-35 -19 45 5 c32 4 79 -3 162 -25 111 -29 127 -31 295
-30 98 1 189 5 203 9 36 11 58 9 -250 28 -195 12 -360 32 -360 44 0 13 -22 9
-60 -12z"/>
<path d="M876 1113 c-16 -8 -68 -30 -117 -48 -48 -18 -109 -46 -136 -62 -27
-17 -89 -46 -138 -66 -130 -51 -259 -121 -264 -143 -3 -11 -6 -80 -8 -154 -3
-162 -3 -161 -13 -130 -8 25 -8 25 -9 2 -1 -13 6 -70 15 -126 l16 -103 67 -7
c36 -4 82 -11 101 -16 68 -18 126 -20 221 -9 81 9 110 8 190 -7 120 -22 227
-28 259 -16 l25 10 -25 5 c-67 14 -303 28 -455 27 -169 -2 -225 4 -225 21 0 5
-17 9 -37 9 -21 0 -45 5 -53 10 -17 12 -27 2 97 98 75 57 102 82 89 82 -3 0
-40 -26 -83 -59 -43 -32 -95 -69 -117 -81 l-39 -23 8 184 c4 125 3 193 -4 212
-11 27 -10 28 16 25 21 -2 40 -20 78 -73 53 -73 93 -115 223 -233 l80 -73 81
56 c116 78 119 78 193 10 65 -59 132 -134 149 -168 8 -14 14 -16 24 -7 16 13
28 -1 19 -24 -10 -25 21 -10 101 49 39 29 132 87 208 131 137 77 281 184 260
191 -8 3 -7 12 2 31 40 78 65 272 51 385 -7 52 -10 57 -32 57 -13 0 -33 -9
-45 -21 -11 -11 -23 -18 -27 -15 -3 4 -26 -14 -51 -38 -25 -25 -88 -67 -139
-94 -61 -32 -127 -79 -195 -139 -96 -84 -104 -89 -124 -76 -12 8 -80 20 -160
28 -76 8 -205 23 -288 34 -82 11 -202 23 -265 27 -63 4 -121 10 -128 13 -11 6
270 151 293 151 4 0 71 32 149 70 77 39 160 74 184 78 37 6 40 9 24 18 -14 9
-25 8 -46 -3z m830 -78 c8 -33 -11 -162 -26 -181 -7 -8 -21 -14 -32 -14 -10 0
-21 -7 -25 -15 -3 -9 -27 -27 -53 -40 -56 -28 -316 -185 -376 -226 -24 -16
-45 -29 -47 -29 -2 0 -7 22 -11 50 -12 88 -24 54 -31 -87 -4 -76 -10 -156 -14
-178 l-7 -40 -32 48 c-18 26 -56 65 -85 86 -29 21 -62 50 -75 64 l-23 25 68
38 c37 21 86 50 107 66 21 15 45 28 52 28 8 0 47 31 87 70 111 106 258 210
318 225 14 3 55 32 90 62 49 43 65 52 67 40 5 -26 22 -20 22 8 0 33 18 32 26
0z m-20 -286 l-10 -81 -53 -40 c-29 -22 -53 -45 -53 -50 0 -6 8 -4 18 3 9 7 4
0 -11 -17 -15 -17 -67 -53 -115 -80 -48 -26 -138 -81 -200 -122 -136 -89 -148
-89 -138 1 11 106 22 133 70 167 24 16 112 65 194 109 159 83 247 138 277 171
10 11 21 20 24 20 4 0 2 -37 -3 -81z m-1031 -9 c116 -17 259 -35 319 -40 119
-11 156 -18 156 -30 0 -4 -19 -10 -42 -13 -45 -5 -125 -50 -343 -192 -109 -71
-120 -76 -130 -59 -12 22 -38 48 -142 141 -44 39 -97 97 -117 128 -21 30 -47
64 -59 75 l-21 20 85 0 c46 0 179 -14 294 -30z m340 -150 c-8 -13 -106 -63
-111 -57 -5 5 95 65 109 66 5 1 5 -4 2 -9z"/>
</g>
</svg>
