<?xml version="1.0" standalone="no"?>
<!DOCTYPE svg PUBLIC "-//W3C//DTD SVG 20010904//EN"
 "http://www.w3.org/TR/2001/REC-SVG-20010904/DTD/svg10.dtd">
<svg version="1.0" xmlns="http://www.w3.org/2000/svg"
 width="739.000000pt" height="770.000000pt" viewBox="0 0 739.000000 770.000000"
 preserveAspectRatio="xMidYMid meet">
<metadata>
Created by potrace 1.12, written by Peter Selinger 2001-2015
</metadata>
<g transform="translate(0.000000,770.000000) scale(0.100000,-0.100000)"
fill="#000000" stroke="none">
<path d="M3205 7579 c-110 -10 -218 -23 -240 -28 -22 -6 -58 -11 -80 -11 -57
0 -357 -48 -442 -71 -40 -10 -90 -19 -110 -19 -21 0 -67 -8 -103 -19 -105 -32
-182 -52 -232 -61 -51 -9 -227 -68 -243 -80 -6 -5 -33 -14 -60 -21 -28 -6 -71
-23 -97 -35 -26 -13 -55 -24 -64 -24 -9 0 -37 -11 -63 -25 -25 -13 -90 -45
-144 -71 -53 -25 -100 -50 -103 -56 -3 -5 -29 -20 -57 -33 -145 -68 -392 -295
-467 -430 -18 -33 -44 -72 -56 -87 -12 -15 -34 -53 -49 -85 -15 -32 -39 -83
-54 -113 -16 -30 -31 -70 -34 -87 -4 -18 -16 -52 -27 -75 -12 -24 -28 -79 -36
-123 -8 -44 -21 -111 -28 -150 -86 -438 -97 -1013 -31 -1602 26 -239 97 -578
129 -625 9 -12 16 -30 16 -40 0 -15 53 -187 66 -213 3 -5 16 -28 29 -50 13
-22 35 -62 49 -90 56 -108 232 -298 332 -357 16 -10 56 -38 89 -62 33 -24 71
-47 84 -51 14 -3 37 -15 52 -26 15 -10 31 -19 36 -19 10 0 211 -106 228 -120
9 -8 187 -81 330 -136 33 -13 82 -34 109 -48 27 -15 59 -26 70 -26 12 0 30 -7
40 -15 11 -8 29 -15 39 -15 11 0 45 -11 76 -24 80 -34 388 -105 506 -117 55
-5 153 -12 217 -16 98 -5 121 -3 142 10 15 10 48 63 81 129 31 62 70 136 87
163 17 28 52 91 78 140 26 50 59 108 73 129 15 21 27 46 27 54 0 9 7 23 15 32
19 20 85 138 154 275 29 55 81 150 116 210 36 61 72 126 81 145 32 69 37 68
178 -26 36 -24 83 -53 126 -79 18 -11 48 -32 65 -48 18 -15 37 -27 42 -27 17
0 43 -36 43 -58 0 -12 -12 -29 -26 -39 -15 -10 -47 -37 -73 -59 -25 -23 -73
-64 -106 -90 -82 -67 -111 -94 -218 -200 -247 -246 -603 -640 -677 -749 -8
-12 -57 -71 -109 -131 -51 -59 -105 -126 -119 -149 -14 -22 -47 -65 -73 -96
-27 -31 -49 -60 -49 -64 0 -6 -36 -51 -109 -136 -29 -33 -32 -44 -27 -74 7
-34 46 -75 72 -75 7 0 25 -10 41 -23 15 -13 57 -40 93 -61 36 -20 90 -52 120
-70 115 -70 223 -132 278 -161 32 -16 70 -40 86 -52 16 -13 34 -23 40 -23 6 0
33 -16 60 -35 27 -19 54 -35 60 -35 6 0 43 -20 81 -44 220 -138 227 -142 315
-189 41 -22 82 -45 90 -53 9 -7 31 -20 50 -29 33 -15 67 -34 177 -99 121 -72
233 -136 293 -167 36 -18 79 -43 95 -55 17 -12 64 -40 105 -64 41 -23 104 -59
140 -81 36 -21 73 -39 83 -39 17 0 103 47 317 173 47 27 105 61 130 75 25 13
52 30 60 38 8 7 49 30 90 51 41 21 95 52 120 69 25 17 63 41 85 53 22 12 63
34 90 51 28 16 61 34 74 40 13 6 37 21 52 35 16 13 39 27 51 30 13 4 37 17 53
29 17 12 77 48 135 80 58 32 112 62 120 67 8 5 33 18 55 30 22 12 47 28 56 36
9 8 32 22 50 32 92 50 149 83 154 90 2 5 29 20 59 35 72 36 81 57 73 194 -8
139 -35 362 -47 384 -6 10 -10 29 -10 43 0 14 -13 67 -30 117 -16 50 -30 97
-30 104 0 8 -4 22 -9 32 -5 9 -22 53 -37 97 -15 44 -45 106 -66 138 -21 32
-38 64 -38 71 0 7 -16 33 -35 57 -19 24 -35 49 -35 55 0 12 -45 74 -79 109
-10 11 -22 29 -25 40 -3 12 -19 29 -36 38 -22 14 -30 26 -30 47 0 24 10 35 53
65 28 19 68 46 87 60 19 13 60 38 90 56 58 34 79 51 141 112 21 20 43 37 48
37 22 0 189 201 226 271 21 41 50 90 65 110 14 20 33 53 42 75 31 74 100 308
114 386 8 43 18 87 24 98 5 10 10 38 10 62 0 24 7 84 15 133 24 144 49 580 49
840 -1 261 -26 688 -48 800 -56 287 -102 444 -167 579 -16 32 -29 67 -29 76 0
9 -11 29 -25 44 -14 15 -25 36 -25 46 0 11 -13 32 -30 46 -16 15 -33 36 -36
48 -27 84 -266 327 -396 402 -10 6 -29 20 -41 32 -12 11 -38 27 -57 36 -19 9
-46 22 -60 30 -14 7 -47 23 -75 36 -27 12 -66 30 -85 40 -19 10 -51 21 -70 25
-19 3 -73 22 -120 42 -47 20 -112 42 -145 50 -33 7 -89 22 -125 32 -150 44
-179 51 -220 51 -24 0 -51 6 -59 14 -9 8 -54 19 -101 25 -47 6 -114 20 -150
31 -36 11 -79 20 -95 20 -17 0 -46 5 -65 10 -19 6 -114 19 -210 30 -96 11
-184 23 -195 26 -42 11 -328 35 -520 44 -305 14 -587 10 -810 -11z m1105 -154
c135 -14 254 -27 265 -29 11 -3 79 -12 150 -21 72 -8 173 -24 225 -34 165 -33
324 -61 348 -61 13 0 36 -7 52 -15 16 -9 51 -18 77 -21 27 -3 86 -18 133 -34
47 -15 112 -33 145 -40 33 -7 71 -18 85 -25 14 -7 75 -29 135 -50 133 -45 302
-124 347 -163 18 -15 60 -46 93 -68 104 -70 172 -136 288 -275 57 -68 203
-364 212 -430 6 -37 2 -57 -15 -95 -12 -27 -31 -80 -41 -117 -11 -38 -28 -80
-38 -95 -10 -15 -31 -47 -47 -72 -31 -49 -41 -59 -144 -167 -64 -67 -180 -161
-241 -194 -42 -23 -89 -52 -143 -88 -66 -43 -311 -161 -335 -161 -11 0 -45
-13 -76 -30 -31 -16 -63 -30 -71 -30 -7 0 -25 -5 -40 -12 -23 -11 -26 -16 -21
-50 6 -47 32 -88 54 -88 17 0 120 38 188 69 22 11 51 22 65 26 38 11 311 145
340 167 42 32 162 108 170 108 5 0 28 16 52 36 143 117 308 302 358 400 30 59
56 84 70 67 11 -13 41 -183 45 -253 2 -36 8 -137 14 -225 29 -442 -2 -1045
-70 -1390 -6 -27 -14 -77 -18 -110 -5 -33 -16 -78 -24 -100 -9 -22 -21 -67
-28 -100 -6 -32 -17 -68 -25 -80 -7 -11 -20 -40 -29 -65 -8 -24 -22 -51 -30
-60 -7 -8 -20 -26 -27 -40 -39 -72 -113 -172 -169 -230 -68 -69 -170 -163
-213 -194 -98 -71 -281 -176 -308 -176 -21 0 -129 63 -198 116 -25 18 -61 42
-81 53 -64 35 -68 49 -59 206 3 77 8 293 9 479 1 186 4 343 7 347 11 19 -32
510 -51 584 -7 28 -16 70 -20 95 -8 58 -78 239 -110 286 -24 35 -63 68 -119
100 -29 16 -99 67 -161 117 -16 13 -50 34 -75 47 -25 12 -55 31 -67 42 -12 12
-44 35 -72 52 -27 17 -100 65 -162 106 -62 41 -140 93 -175 115 -111 72 -249
167 -274 190 -14 13 -36 26 -50 30 -14 4 -43 22 -65 40 -22 17 -58 42 -80 54
-22 13 -53 34 -70 48 -16 14 -82 58 -145 98 -63 41 -127 83 -141 94 -15 12
-35 24 -45 28 -11 3 -32 17 -47 30 -32 26 -93 31 -119 11 -9 -7 -42 -62 -74
-123 -31 -60 -65 -119 -75 -130 -17 -20 -75 -124 -131 -237 -16 -32 -33 -60
-38 -63 -6 -4 -10 -13 -10 -21 0 -9 -13 -34 -29 -57 -15 -23 -41 -67 -56 -97
-15 -30 -36 -66 -47 -79 -10 -14 -28 -43 -38 -65 -11 -23 -27 -52 -35 -66 -8
-14 -38 -68 -66 -120 -60 -109 -88 -160 -145 -262 -47 -84 -70 -200 -79 -392
-3 -60 -8 -113 -11 -117 -9 -16 -35 -371 -41 -564 -7 -239 14 -892 33 -1005 8
-47 14 -115 14 -152 0 -37 5 -101 10 -142 15 -104 6 -120 -63 -113 -165 16
-314 40 -397 63 -52 14 -122 32 -155 39 -33 8 -80 23 -105 33 -45 20 -130 53
-245 97 -33 13 -82 32 -110 43 -27 11 -73 29 -101 40 -76 31 -342 161 -348
170 -3 5 -27 17 -53 27 -26 10 -61 29 -76 42 -16 12 -33 23 -39 23 -13 0 -136
87 -184 131 -71 64 -161 173 -198 239 -21 36 -46 81 -58 100 -11 19 -27 57
-35 85 -8 27 -21 59 -29 70 -8 11 -14 27 -14 36 0 10 -13 57 -30 104 -16 48
-32 108 -36 134 -3 25 -17 100 -29 166 -52 265 -75 518 -82 900 -4 249 -1 361
11 505 34 388 42 433 79 428 15 -2 26 -15 35 -42 7 -21 25 -54 40 -71 15 -18
41 -53 57 -76 43 -62 160 -184 224 -233 156 -119 237 -176 249 -176 5 0 17 -9
27 -20 10 -11 24 -20 30 -20 7 0 28 -11 47 -24 20 -13 53 -29 74 -36 22 -7 50
-20 64 -29 29 -19 168 -83 220 -101 19 -6 58 -21 85 -32 28 -11 64 -23 80 -28
17 -4 46 -15 65 -23 20 -8 78 -27 130 -40 52 -14 114 -32 137 -40 23 -9 63
-19 90 -22 26 -4 68 -13 92 -21 59 -20 250 -55 328 -61 l62 -5 16 37 c27 67
22 82 -37 100 -29 8 -86 19 -127 25 -40 6 -77 13 -81 15 -5 3 -62 16 -127 30
-173 37 -464 119 -514 145 -10 6 -26 10 -37 10 -10 0 -39 11 -63 23 -24 13
-57 27 -73 31 -17 4 -42 16 -57 27 -15 10 -33 19 -41 19 -17 0 -234 109 -276
138 -16 12 -35 22 -41 22 -5 0 -34 20 -64 44 -29 24 -64 49 -77 56 -126 68
-328 296 -385 436 -31 77 -52 104 -80 104 -22 0 -55 23 -55 38 0 4 6 27 14 52
13 42 23 67 82 198 13 29 24 58 24 66 0 7 9 21 20 31 10 9 37 47 59 84 48 79
93 134 183 221 133 130 332 266 415 284 18 4 37 14 44 22 6 8 17 14 24 14 8 0
43 16 79 35 37 19 71 35 77 35 10 0 70 22 254 94 33 13 86 27 118 31 31 4 60
11 62 15 3 5 31 14 63 20 31 6 77 17 102 25 25 8 92 23 150 34 58 11 137 27
175 35 104 21 242 43 405 61 80 9 188 23 240 30 62 8 232 13 485 14 349 1 416
-2 635 -24z m-400 -1505 c17 -16 35 -30 39 -30 5 0 35 -18 67 -40 33 -23 77
-52 99 -67 65 -42 198 -128 225 -146 14 -10 45 -33 70 -52 25 -19 54 -39 65
-44 11 -5 55 -33 99 -62 105 -72 155 -105 189 -127 15 -9 49 -33 75 -52 26
-19 94 -64 151 -100 56 -36 143 -92 192 -125 49 -33 103 -69 120 -80 111 -72
168 -162 215 -340 52 -195 56 -257 60 -885 4 -579 1 -640 -29 -640 -16 0 -135
58 -142 70 -3 5 -13 10 -21 10 -27 0 -161 68 -168 85 -3 9 -3 34 0 55 11 65
-21 161 -68 207 -34 33 -45 38 -87 38 -64 0 -121 -37 -150 -99 -29 -63 -52
-72 -132 -53 -35 9 -78 18 -96 22 -39 8 -181 -26 -259 -62 -62 -28 -116 -26
-133 6 -6 10 -32 28 -59 39 -27 12 -54 28 -61 36 -6 7 -37 29 -67 47 -31 19
-70 45 -88 59 -17 14 -48 34 -70 45 -21 11 -57 36 -80 56 l-41 37 -2 681 c-2
649 1 742 26 727 5 -3 15 -27 22 -52 9 -31 29 -62 60 -92 54 -53 107 -71 216
-72 68 0 73 2 120 39 58 46 71 61 108 126 52 91 47 273 -12 393 -15 30 -37 61
-50 70 -13 9 -37 27 -52 39 -15 12 -48 27 -72 33 -39 10 -52 8 -103 -10 -32
-12 -74 -36 -93 -53 -70 -62 -143 -179 -143 -230 0 -17 -3 -18 -12 -9 -10 10
-14 87 -16 299 -2 157 -1 297 2 310 9 33 48 30 86 -7z m-235 -505 c0 -422 7
-400 -105 -342 -59 30 -83 37 -130 37 -33 0 -61 -4 -64 -9 -3 -5 -25 -19 -47
-31 -36 -18 -44 -19 -56 -7 -16 16 -9 37 37 107 16 25 34 56 40 70 5 14 17 36
25 50 9 14 36 64 60 112 24 47 49 89 54 93 6 3 20 27 31 53 12 26 34 67 49 92
15 25 40 67 55 93 15 27 33 46 39 44 9 -3 12 -97 12 -362z m472 -22 c47 -51
54 -69 54 -136 0 -106 -14 -143 -69 -177 -58 -36 -74 -29 -114 50 -46 90 -34
196 29 263 15 15 37 27 50 27 13 0 36 -12 50 -27z m-609 -511 c47 -50 65 -120
60 -228 l-4 -95 -52 -49 c-28 -28 -56 -50 -62 -50 -6 0 -35 23 -65 51 -53 50
-53 51 -60 125 -6 56 -3 89 8 130 18 63 67 131 100 137 43 8 49 7 75 -21z
m-387 -74 c0 -7 2 -58 4 -113 3 -127 28 -207 86 -276 67 -80 109 -102 204
-107 76 -4 82 -2 125 27 48 33 81 39 98 19 11 -13 14 -161 5 -211 -4 -25 -8
-28 -31 -23 -15 4 -38 19 -52 35 -34 38 -61 51 -107 51 -43 0 -76 -19 -121
-71 -44 -51 -55 -83 -54 -172 0 -65 4 -84 26 -121 47 -80 123 -124 191 -112
19 4 55 22 80 41 51 39 57 41 75 20 10 -12 8 -29 -15 -93 -15 -42 -35 -88 -44
-102 -9 -14 -34 -59 -57 -100 -33 -61 -44 -75 -64 -75 -20 0 -26 7 -35 40 -5
22 -18 51 -27 65 -9 14 -22 36 -28 50 -11 25 -26 37 -119 93 -36 22 -54 26
-84 22 -58 -8 -154 -63 -167 -95 -15 -37 -37 -45 -51 -18 -15 27 -14 310 1
337 5 11 10 83 10 165 0 87 6 172 14 213 8 37 18 120 21 183 4 63 13 138 21
167 8 28 14 61 14 73 0 24 27 81 44 92 17 12 36 9 37 -4z m366 -820 c31 -40
12 -104 -24 -82 -22 13 -29 60 -12 80 14 17 24 18 36 2z m-215 -521 c30 -28
43 -88 34 -152 -10 -65 -63 -123 -100 -109 -20 8 -76 108 -76 136 0 32 28 110
47 131 22 24 65 21 95 -6z m1423 -161 c55 -16 82 -26 235 -86 58 -23 135 -52
171 -65 36 -12 77 -29 90 -38 13 -8 38 -18 56 -22 42 -9 236 -115 477 -262 15
-10 47 -33 70 -52 22 -19 57 -44 76 -57 58 -37 182 -154 256 -239 39 -44 101
-134 138 -200 38 -66 75 -127 81 -135 7 -8 16 -26 19 -40 4 -14 15 -45 26 -70
27 -66 60 -175 76 -255 9 -38 20 -88 25 -110 6 -22 14 -80 18 -130 5 -49 14
-125 21 -167 7 -42 10 -83 7 -91 -6 -15 -129 -101 -163 -113 -10 -4 -32 -17
-49 -30 -16 -12 -66 -41 -110 -64 -44 -23 -87 -48 -96 -56 -8 -8 -20 -14 -26
-14 -5 0 -54 -28 -109 -63 -54 -34 -128 -79 -164 -98 -36 -20 -83 -47 -105
-59 -22 -13 -60 -35 -85 -48 -25 -14 -54 -33 -65 -43 -11 -9 -40 -27 -65 -39
-56 -27 -55 -27 -123 -73 -31 -21 -68 -39 -84 -40 -24 -2 -28 2 -31 27 -3 20
4 36 20 52 13 13 37 42 53 64 17 23 44 58 60 78 17 20 43 55 58 77 15 22 43
60 62 85 45 57 136 193 164 245 12 22 32 54 44 71 23 34 52 79 79 126 9 16 23
37 31 46 8 9 24 35 34 57 11 22 37 69 58 105 85 149 175 343 175 380 0 9 9 34
21 55 11 22 32 71 46 109 22 61 24 74 14 108 -9 28 -19 40 -38 44 -38 10 -76
-7 -92 -41 -18 -37 -68 -165 -88 -225 -8 -25 -35 -90 -59 -146 -24 -55 -44
-105 -44 -112 0 -6 -6 -15 -14 -19 -8 -4 -28 -37 -45 -73 -37 -77 -122 -218
-170 -281 -18 -24 -41 -62 -51 -84 -9 -22 -25 -46 -34 -54 -9 -7 -16 -20 -16
-29 0 -9 -17 -36 -39 -62 -21 -25 -53 -70 -71 -100 -18 -30 -45 -68 -60 -85
-15 -16 -39 -48 -53 -70 -15 -22 -39 -56 -54 -77 -15 -20 -48 -64 -73 -98 -25
-34 -65 -86 -90 -115 -25 -30 -58 -72 -75 -95 -16 -22 -43 -58 -60 -79 -16
-21 -43 -55 -58 -75 -24 -32 -33 -36 -72 -36 -24 0 -46 4 -49 9 -3 4 -54 36
-113 70 -60 34 -137 79 -173 100 -36 22 -94 55 -130 74 -64 35 -117 65 -175
100 -17 10 -70 41 -120 68 -49 28 -102 59 -116 69 -14 10 -66 39 -115 65 -49
26 -96 53 -104 59 -8 7 -41 28 -73 47 -32 19 -84 49 -115 68 -31 19 -90 53
-129 75 -233 132 -373 213 -411 239 -23 15 -67 40 -97 53 -30 14 -57 30 -61
35 -3 6 -17 14 -30 19 -29 11 -52 56 -38 74 52 71 80 107 109 141 46 55 80
103 104 147 12 20 29 43 40 50 18 13 117 130 183 216 18 23 65 76 103 116 39
41 86 96 105 122 98 135 651 676 780 763 21 14 69 52 106 84 39 32 86 63 109
69 22 6 46 16 52 21 19 14 124 46 153 46 14 1 48 -6 75 -13z m-1685 -148 c11
-12 20 -25 20 -30 0 -17 127 -72 180 -78 47 -4 55 -8 58 -27 2 -12 -5 -35 -16
-50 -64 -95 -98 -152 -155 -263 -36 -68 -69 -126 -75 -128 -10 -3 -16 23 -26
118 -3 19 -9 64 -15 100 -8 54 -16 298 -12 363 1 23 16 22 41 -5z"/>
<path d="M5085 4709 c-52 -16 -108 -63 -162 -134 -112 -149 -137 -356 -64
-517 81 -176 239 -243 402 -169 58 27 69 36 115 108 28 43 55 85 60 93 16 28
28 126 28 225 0 89 -4 109 -33 182 -27 68 -43 93 -93 140 -33 32 -69 63 -81
70 -26 14 -128 15 -172 2z m70 -213 c40 -17 57 -47 86 -152 26 -95 22 -148
-19 -236 -35 -76 -49 -89 -106 -95 -37 -5 -47 -1 -73 23 -50 48 -75 122 -76
233 -2 88 0 100 26 143 27 46 88 98 115 98 7 0 28 -6 47 -14z"/>
<path d="M4204 4212 c-51 -22 -119 -80 -129 -111 -4 -12 -17 -38 -30 -57 -35
-51 -42 -150 -17 -241 25 -95 38 -113 110 -151 97 -52 181 -38 268 45 36 35
44 50 63 131 19 74 21 97 12 123 -6 18 -11 49 -11 69 0 56 -70 157 -126 181
-63 28 -94 31 -140 11z m62 -227 c12 -19 15 -42 12 -94 -4 -77 -24 -111 -64
-111 -37 0 -54 36 -54 115 0 84 16 115 60 115 20 0 35 -8 46 -25z"/>
<path d="M4406 3005 c-53 -19 -88 -46 -105 -81 -8 -16 -20 -41 -28 -56 -27
-54 -10 -102 68 -186 56 -61 130 -88 211 -79 74 9 117 42 157 121 33 64 33 68
20 108 -23 71 -81 133 -146 156 -81 29 -131 34 -177 17z m120 -220 c12 -48
-23 -61 -63 -23 -29 27 -29 46 0 57 29 11 55 -3 63 -34z"/>
<path d="M4310 2419 c-99 -35 -165 -122 -176 -232 -8 -82 1 -148 26 -178 11
-13 34 -41 50 -61 49 -59 154 -106 279 -125 l107 -16 60 27 c49 23 65 37 95
84 55 86 70 119 76 171 4 40 1 58 -22 102 -67 135 -146 198 -287 230 -103 23
-138 23 -208 -2z m205 -243 c88 -38 139 -120 110 -177 -8 -15 -24 -31 -36 -34
-60 -19 -229 34 -284 89 -19 19 -25 35 -25 69 0 50 15 74 50 79 45 6 144 -8
185 -26z"/>
<path d="M5162 2069 c-61 -24 -99 -69 -132 -155 -28 -75 -26 -91 19 -160 67
-101 162 -166 266 -179 64 -8 183 23 240 63 131 93 102 262 -66 384 -91 66
-226 85 -327 47z m116 -190 c91 -23 148 -91 115 -139 -14 -20 -21 -21 -67 -15
-106 14 -188 101 -140 149 18 19 30 20 92 5z"/>
<path d="M3650 1776 c-90 -27 -117 -44 -146 -93 -45 -76 -54 -101 -54 -162 1
-80 27 -130 95 -182 125 -96 189 -117 322 -104 85 8 101 20 166 120 28 43 32
58 32 115 0 88 -28 144 -110 215 -95 84 -213 119 -305 91z m98 -218 c36 -9 59
-24 100 -66 56 -58 62 -77 35 -98 -22 -16 -113 -18 -166 -3 -54 15 -117 78
-117 117 0 57 52 74 148 50z"/>
<path d="M4635 1539 c-74 -39 -107 -81 -120 -151 -20 -106 107 -239 245 -255
92 -11 136 3 196 61 l54 52 0 66 c0 59 -3 69 -32 106 -39 48 -114 107 -163
128 -51 21 -133 18 -180 -7z m121 -185 c43 -20 48 -28 34 -54 -14 -26 -59 -26
-94 1 -30 24 -33 44 -8 58 23 14 29 14 68 -5z"/>
<path d="M1580 2282 c-21 -17 -23 -24 -14 -39 9 -15 8 -23 -2 -38 -8 -10 -14
-26 -14 -36 0 -32 -30 -44 -114 -44 -98 0 -172 -30 -195 -80 -8 -16 -21 -35
-29 -41 -21 -15 -26 -124 -8 -168 20 -48 126 -101 183 -91 38 6 40 5 57 -34
11 -23 15 -45 10 -53 -31 -50 -100 -129 -143 -163 -47 -36 -141 -136 -141
-149 0 -3 -11 -22 -25 -42 -31 -45 -36 -117 -7 -112 10 2 23 21 31 48 11 34
37 67 115 145 56 55 123 126 150 158 56 66 85 78 115 48 25 -25 59 -27 68 -5
4 10 -12 33 -46 68 -55 56 -59 65 -36 100 20 31 9 56 -27 63 -40 8 -56 43 -39
86 7 18 19 50 26 72 7 22 36 64 65 94 52 56 96 81 183 108 43 13 53 13 80 -1
18 -8 60 -18 95 -22 107 -12 136 -61 51 -84 -50 -14 -102 -53 -130 -97 -19
-30 -19 -34 -4 -63 15 -29 15 -33 0 -56 -21 -33 -16 -69 10 -69 14 0 30 17 50
52 52 92 110 82 103 -17 -3 -46 -9 -60 -39 -90 -19 -19 -47 -42 -64 -50 -27
-14 -31 -21 -39 -84 -7 -57 -6 -74 8 -96 9 -16 16 -35 16 -44 0 -27 -43 -46
-95 -44 -45 3 -50 1 -63 -25 -16 -34 -77 -73 -125 -82 -40 -8 -127 -70 -127
-91 0 -23 20 -26 47 -7 41 29 45 31 94 52 32 14 58 18 85 14 51 -7 123 -54
153 -98 l25 -37 -19 -55 c-14 -40 -28 -61 -47 -72 -15 -9 -28 -19 -28 -23 0
-3 -21 -22 -47 -41 -46 -33 -166 -77 -211 -77 -41 0 -185 53 -216 80 -17 15
-45 34 -62 43 -41 21 -57 42 -69 90 -14 56 -34 66 -73 37 -23 -17 -39 -21 -65
-17 -49 8 -122 43 -153 74 -29 29 -70 139 -80 217 -4 28 -13 60 -20 71 -6 11
-15 45 -19 75 -10 73 -77 200 -134 252 l-44 41 -189 -6 c-150 -5 -197 -3 -229
8 -64 23 -80 -1 -32 -47 48 -45 65 -48 219 -49 98 0 157 -4 178 -13 44 -18 93
-78 106 -128 6 -24 17 -59 25 -78 7 -19 16 -73 19 -120 3 -47 12 -105 20 -129
9 -24 16 -56 16 -72 0 -20 9 -35 30 -51 17 -12 30 -28 30 -35 0 -19 76 -86
146 -130 57 -35 62 -37 148 -35 94 1 125 -8 160 -47 11 -12 42 -28 70 -36 36
-11 65 -30 101 -65 47 -46 55 -50 125 -62 41 -7 102 -11 135 -11 162 5 242 10
253 17 6 4 12 22 12 41 0 47 22 65 80 65 31 0 55 6 70 18 20 16 22 24 16 65
-6 42 -11 49 -41 61 -39 17 -51 48 -36 90 6 15 11 42 11 61 0 46 46 80 96 71
33 -7 35 -6 54 39 27 64 25 82 -13 118 -53 50 -90 81 -112 92 -27 14 -55 72
-55 116 0 49 37 187 59 218 10 14 22 37 26 50 4 14 18 45 31 69 13 25 24 51
24 58 0 19 33 34 74 34 67 0 98 63 37 76 -54 11 -71 24 -78 55 -9 48 -54 72
-125 64 -46 -5 -62 -2 -90 15 -25 15 -50 20 -102 20 -59 0 -76 4 -108 27 -53
36 -133 43 -168 15z m80 -51 c0 -15 -19 -23 -38 -16 -14 5 -14 7 -2 15 19 12
40 13 40 1z m-236 -247 c10 -25 7 -104 -4 -125 -15 -28 -74 -26 -94 3 -32 46
-17 92 39 122 38 20 51 20 59 0z m529 -389 c3 -7 -2 -24 -13 -37 -15 -19 -22
-21 -37 -12 -23 14 -29 44 -11 55 21 14 55 10 61 -6z m-138 -216 c4 -5 18 -14
31 -19 31 -12 40 -35 26 -66 -15 -32 -51 -31 -86 1 -29 27 -32 45 -14 75 14
22 33 26 43 9z m320 -54 c0 -25 -40 -33 -49 -10 -9 24 2 37 27 33 14 -2 22
-10 22 -23z m-149 -159 c7 -17 -32 -96 -47 -96 -6 0 -8 8 -5 18 3 9 8 34 12
55 6 37 29 51 40 23z m-891 -120 c11 -8 16 -19 12 -30 -8 -21 -75 -22 -103 -2
-18 14 -17 15 16 30 44 19 52 19 75 2z m613 -233 c4 -29 -30 -47 -75 -38 -41
7 -103 35 -103 46 0 9 65 16 130 15 38 -1 45 -4 48 -23z m162 -3 c0 -5 -4 -10
-10 -10 -5 0 -10 5 -10 10 0 6 5 10 10 10 6 0 10 -4 10 -10z"/>
<path d="M1773 2123 c-13 -8 -23 -24 -23 -34 0 -25 42 -51 77 -47 34 4 43 37
19 74 -19 27 -41 30 -73 7z"/>
</g>
</svg>
