<?xml version="1.0" standalone="no"?>
<!DOCTYPE svg PUBLIC "-//W3C//DTD SVG 20010904//EN"
 "http://www.w3.org/TR/2001/REC-SVG-20010904/DTD/svg10.dtd">
<svg version="1.0" xmlns="http://www.w3.org/2000/svg"
 width="181.000000pt" height="194.000000pt" viewBox="0 0 181.000000 194.000000"
 preserveAspectRatio="xMidYMid meet">
<metadata>
Created by potrace 1.12, written by Peter Selinger 2001-2015
</metadata>
<g transform="translate(0.000000,194.000000) scale(0.100000,-0.100000)"
fill="#000000" stroke="none">
<path d="M909 1616 c9 -11 7 -15 -6 -18 -20 -5 -95 -126 -139 -222 -24 -53
-25 -60 -10 -68 19 -10 23 -102 5 -113 -17 -11 -20 0 -9 30 16 42 3 43 -14 1
-9 -22 -26 -41 -43 -48 -27 -11 -27 -12 -5 -16 36 -6 89 16 96 41 10 39 6 91
-9 111 -8 11 -15 23 -15 27 0 4 27 42 59 86 33 43 63 94 68 113 7 28 15 36 36
38 36 4 71 -16 99 -58 23 -34 26 -35 85 -35 49 0 68 5 94 24 25 19 35 22 48
13 31 -22 82 -41 96 -36 7 3 59 -13 115 -35 56 -23 112 -41 124 -41 12 0 30
-6 39 -12 15 -12 13 -17 -15 -58 -177 -256 -246 -368 -294 -478 -19 -43 -34
-67 -34 -55 0 13 -13 37 -29 55 -24 27 -36 33 -71 33 -35 0 -47 -6 -71 -33
-16 -18 -30 -41 -30 -52 -5 -68 -1 -85 26 -114 14 -15 30 -24 35 -21 6 3 10 1
10 -4 0 -6 9 -11 20 -11 11 0 20 -3 20 -7 0 -4 -18 -37 -40 -75 -38 -63 -44
-68 -75 -68 -41 0 -89 -37 -104 -81 -9 -27 -8 -33 15 -54 l26 -24 -25 -43
c-14 -24 -52 -74 -84 -113 -52 -61 -64 -70 -92 -69 -17 1 -43 9 -56 18 -21 14
-25 24 -25 66 0 37 -4 50 -14 50 -8 0 -25 14 -37 31 -21 29 -25 31 -68 26 -25
-3 -71 -17 -101 -31 -30 -14 -64 -26 -76 -26 -29 0 -117 31 -126 44 -4 6 -8 8
-8 4 0 -4 -14 -2 -31 4 -27 9 -29 13 -23 41 18 82 138 306 179 333 23 15 39
47 75 146 12 31 45 90 74 130 29 40 60 87 68 103 20 39 31 85 21 85 -5 0 -53
-75 -108 -167 -55 -93 -128 -210 -162 -261 -35 -52 -67 -109 -72 -128 -5 -19
-28 -67 -51 -107 -23 -39 -47 -93 -53 -119 -8 -34 -17 -48 -31 -50 -20 -3 160
-80 231 -98 40 -10 44 -9 99 30 63 44 99 50 142 23 35 -22 52 -43 52 -65 0
-24 -14 -23 -50 4 -43 31 -180 29 -180 -3 0 -7 7 -8 18 -3 9 4 43 10 74 12 53
3 60 1 88 -26 16 -17 30 -39 30 -50 0 -20 25 -32 69 -32 14 0 40 -5 58 -12 30
-11 39 -10 81 12 25 14 98 63 162 108 63 46 138 95 165 109 54 27 115 80 115
99 0 14 51 34 86 34 12 0 40 15 62 33 22 17 47 37 56 42 13 7 21 36 31 100 12
84 12 91 -6 114 -23 29 -25 93 -4 111 8 7 15 18 15 24 -1 6 -10 0 -20 -13 -14
-17 -20 -38 -20 -76 0 -33 -5 -55 -12 -58 -7 -3 0 -6 16 -6 26 -1 28 -4 23
-30 -3 -15 -9 -52 -13 -81 -6 -46 -11 -55 -48 -82 -33 -24 -42 -27 -44 -14 -2
9 -9 16 -15 16 -7 0 -18 9 -25 20 -31 50 -157 -68 -155 -146 1 -30 -5 -36
-101 -95 -55 -34 -135 -88 -176 -119 -105 -79 -106 -79 -49 -3 28 37 58 80 67
96 13 22 24 27 53 27 21 0 46 8 57 17 22 19 43 91 23 79 -6 -4 -11 -13 -11
-20 0 -18 -43 -56 -63 -56 -10 0 -21 9 -25 21 -5 11 -11 20 -15 20 -22 -3 -28
1 -36 22 -7 18 -3 28 22 55 17 18 41 32 54 32 29 0 29 -3 -2 -57 -30 -51 -26
-59 4 -9 28 44 49 52 62 23 8 -19 9 -17 4 11 -6 39 7 66 79 172 28 41 64 107
80 145 32 76 50 106 107 175 20 25 49 70 64 100 32 63 186 282 194 275 2 -3
-1 -11 -7 -17 -15 -15 -16 -31 0 -22 7 5 9 2 6 -8 -3 -8 -12 -49 -18 -91 -12
-75 -14 -77 -31 -61 -21 19 -27 6 -7 -14 9 -9 8 -15 -8 -27 -10 -8 -22 -15
-26 -15 -12 0 -9 25 4 38 9 9 9 12 0 12 -14 0 -31 -31 -25 -47 3 -7 15 -13 27
-13 12 0 28 6 35 13 11 10 12 4 7 -33 -14 -92 -25 -122 -46 -115 -10 3 -35 -1
-55 -9 -61 -26 -81 -110 -38 -158 25 -28 35 -21 18 12 -8 16 -15 44 -15 63 0
29 5 35 45 55 36 18 50 20 66 11 12 -6 23 -8 26 -6 2 3 13 72 24 154 11 81 25
189 33 238 20 135 12 144 -154 185 -124 30 -179 49 -231 76 -54 28 -75 30 -82
10 -8 -19 -53 -42 -98 -51 -28 -5 -38 -2 -53 14 -11 12 -20 31 -21 44 -1 15
-14 29 -45 45 -51 25 -100 31 -81 8z m331 -762 c24 -25 24 -26 9 -69 -9 -25
-12 -42 -8 -39 14 8 11 -5 -8 -38 -16 -26 -22 -29 -63 -26 -25 2 -45 8 -46 13
0 6 -8 27 -17 47 -20 45 -10 81 31 115 36 30 73 29 102 -3z m170 -333 c15 -28
12 -41 -8 -41 -9 0 -34 -11 -54 -25 l-37 -25 9 32 c11 35 47 78 66 78 7 0 18
-9 24 -19z"/>
<path d="M1418 1334 c-4 -3 -12 -7 -20 -8 -46 -10 -88 -62 -88 -109 0 -35 43
-67 90 -67 80 0 130 118 74 174 -15 16 -45 21 -56 10z m47 -34 c22 -42 19 -73
-11 -101 -31 -29 -95 -33 -121 -6 -28 27 -7 67 57 105 30 17 55 32 57 32 1 0
9 -13 18 -30z"/>
<path d="M955 1310 c-80 -36 -119 -95 -119 -180 0 -95 55 -160 135 -160 38 0
159 54 159 71 0 6 -9 7 -21 4 -20 -7 -20 -6 -5 17 23 35 36 118 26 162 -9 40
-54 96 -77 96 -20 0 -16 -10 27 -56 45 -49 50 -80 25 -141 -26 -63 -63 -103
-93 -103 -33 0 -102 31 -120 53 -8 9 -16 34 -19 55 -5 34 -1 44 28 77 27 30
29 36 12 26 -31 -16 -30 3 1 34 14 13 45 29 70 36 25 6 46 15 46 20 0 14 -31
9 -75 -11z m131 -22 l19 -21 -27 18 c-29 18 -34 25 -20 25 5 0 17 -10 28 -22z
m-181 -255 c18 -16 40 -23 68 -24 32 0 37 -2 22 -8 -58 -24 -129 24 -140 94
l-6 40 15 -40 c8 -22 27 -50 41 -62z"/>
<path d="M1536 1313 c-6 -14 -5 -15 5 -6 7 7 10 15 7 18 -3 3 -9 -2 -12 -12z"/>
<path d="M658 882 c-21 -23 -30 -76 -15 -91 35 -35 114 8 102 57 -8 33 -13 38
-46 46 -18 4 -31 0 -41 -12z m52 -31 c0 -37 -24 -59 -45 -41 -29 24 -11 70 27
70 13 0 18 -8 18 -29z"/>
<path d="M1381 742 c10 -16 10 -23 0 -36 -18 -22 -29 -20 -34 7 -4 19 -4 19
-6 -5 -1 -37 12 -42 43 -17 31 24 32 62 3 67 -16 3 -17 1 -6 -16z"/>
<path d="M801 662 c-27 -51 -3 -110 38 -97 46 14 88 93 60 111 -8 4 -9 -1 -4
-17 l7 -24 -17 23 c-9 12 -23 22 -31 22 -10 0 -9 -5 6 -20 26 -26 25 -34 -7
-60 -24 -19 -28 -19 -42 -5 -13 13 -13 20 -3 47 13 36 9 50 -7 20z"/>
<path d="M477 619 c-46 -24 -61 -58 -53 -121 16 -141 109 -166 217 -58 27 27
49 57 49 67 0 13 -7 8 -21 -15 -12 -18 -23 -31 -25 -30 -2 2 2 23 8 46 15 58
4 91 -35 106 -61 25 -99 26 -140 5z m134 -20 c14 -7 19 -21 19 -50 0 -111
-117 -197 -163 -120 -31 53 -21 108 30 163 20 21 32 25 60 22 19 -3 44 -9 54
-15z m-159 -39 c-10 -22 -18 -33 -20 -24 -3 13 23 64 32 64 3 0 -3 -18 -12
-40z"/>
<path d="M780 231 c-15 -30 -12 -49 10 -56 26 -8 40 1 40 28 -1 20 -2 20 -11
5 -5 -10 -14 -18 -19 -18 -14 0 -12 34 2 48 9 9 9 12 0 12 -6 0 -16 -9 -22
-19z"/>
</g>
</svg>
