<?xml version="1.0" standalone="no"?>
<!DOCTYPE svg PUBLIC "-//W3C//DTD SVG 20010904//EN"
 "http://www.w3.org/TR/2001/REC-SVG-20010904/DTD/svg10.dtd">
<svg version="1.0" xmlns="http://www.w3.org/2000/svg"
 width="1148.000000pt" height="920.000000pt" viewBox="0 0 1148.000000 920.000000"
 preserveAspectRatio="xMidYMid meet">
<metadata>
Created by potrace 1.13, written by Peter Selinger 2001-2015
</metadata>
<g transform="translate(0.000000,920.000000) scale(0.100000,-0.100000)"
fill="#000000" stroke="none">
<path d="M6000 8550 c0 -5 -16 -10 -35 -10 -19 0 -35 -4 -35 -10 0 -5 -6 -10
-13 -10 -7 0 -19 -9 -27 -20 -8 -11 -20 -20 -27 -20 -7 0 -15 -11 -19 -25 -4
-18 -13 -25 -30 -25 -25 0 -38 -30 -51 -117 -3 -24 -10 -43 -14 -43 -5 0 -9
-67 -9 -150 0 -93 4 -150 10 -150 6 0 10 -10 10 -22 0 -12 8 -45 18 -75 14
-42 21 -53 39 -53 13 0 24 -8 28 -20 3 -11 13 -20 21 -20 8 0 14 -4 14 -10 0
-5 9 -10 20 -10 11 0 20 -4 20 -10 0 -5 16 -10 35 -10 19 0 35 -4 35 -10 0 -5
18 -10 40 -10 22 0 40 -4 40 -10 0 -5 9 -10 20 -10 11 0 20 5 20 10 0 6 20 10
45 10 25 0 45 5 45 10 0 6 16 10 35 10 19 0 35 5 35 10 0 6 5 10 10 10 16 0
80 68 80 85 0 8 9 15 20 15 15 0 23 11 32 45 7 25 16 45 20 45 4 0 8 14 8 30
0 17 5 30 10 30 6 0 10 57 10 150 0 93 -4 150 -10 150 -5 0 -10 14 -10 30 0
17 -4 30 -8 30 -4 0 -14 20 -21 45 -8 27 -19 45 -28 45 -8 0 -28 14 -43 30
-15 17 -35 30 -44 30 -9 0 -16 5 -16 10 0 6 -9 10 -20 10 -11 0 -20 5 -20 10
0 6 -47 10 -120 10 -73 0 -120 -4 -120 -10z m170 -110 c0 -5 16 -10 35 -10 19
0 35 -4 35 -8 0 -8 11 -23 50 -69 5 -7 10 -24 10 -38 0 -14 5 -25 10 -25 6 0
10 -53 10 -140 0 -87 -4 -140 -10 -140 -5 0 -10 -12 -10 -26 0 -14 -6 -31 -12
-39 -7 -7 -22 -25 -32 -39 -10 -14 -27 -26 -37 -26 -11 0 -19 -4 -19 -10 0 -5
-9 -10 -20 -10 -11 0 -20 -4 -20 -10 0 -6 -27 -10 -60 -10 -33 0 -60 4 -60 10
0 6 -9 10 -20 10 -11 0 -20 4 -20 9 0 6 -15 11 -32 13 -27 2 -35 9 -43 36 -5
17 -13 32 -17 32 -4 0 -8 9 -8 20 0 11 -4 20 -10 20 -6 0 -10 53 -10 140 0 87
4 140 10 140 6 0 10 9 10 20 0 11 5 20 10 20 6 0 10 7 10 15 0 32 23 65 46 65
14 0 25 8 29 20 3 11 15 20 26 20 10 0 19 5 19 10 0 6 28 10 65 10 37 0 65 -4
65 -10z"/>
<path d="M5200 8530 c0 -5 -16 -10 -35 -10 -19 0 -35 -4 -35 -10 0 -5 -7 -10
-15 -10 -8 0 -15 -4 -15 -10 0 -5 -8 -10 -18 -10 -10 0 -25 -11 -32 -25 -7
-14 -20 -25 -28 -25 -8 0 -23 -10 -33 -22 l-19 -21 0 21 c0 12 -4 22 -10 22
-5 0 -10 11 -10 25 0 23 -4 25 -45 25 -40 0 -45 -3 -51 -26 -9 -34 17 -484 27
-484 5 0 9 -34 9 -75 0 -66 2 -75 18 -75 17 0 20 -18 32 -227 9 -156 17 -231
26 -240 15 -15 84 -18 84 -3 0 6 9 10 19 10 28 0 32 22 25 151 -5 90 -10 119
-21 119 -9 0 -13 17 -13 65 0 50 3 65 14 65 8 0 18 -9 21 -20 3 -11 12 -20 20
-20 7 0 15 -5 17 -12 6 -17 240 -18 245 0 3 6 17 12 33 12 20 0 31 6 35 19 3
11 19 34 36 52 16 17 29 39 29 49 0 10 5 20 11 22 6 2 13 41 16 86 5 71 8 82
24 82 14 0 19 7 19 25 0 18 -5 25 -19 25 -16 0 -19 12 -24 112 -3 61 -10 114
-15 117 -6 3 -13 23 -17 44 -4 20 -11 37 -16 37 -5 0 -9 7 -9 16 0 8 -6 21
-12 28 -7 7 -22 25 -33 39 -11 16 -30 27 -42 27 -13 0 -23 5 -23 10 0 6 -11
10 -25 10 -14 0 -25 5 -25 10 0 6 -27 10 -60 10 -33 0 -60 -4 -60 -10z m70
-130 c0 -5 9 -10 20 -10 36 0 68 -43 81 -109 10 -47 17 -61 31 -61 16 0 18 -9
18 -75 0 -43 4 -75 10 -75 6 0 10 -13 10 -30 0 -16 -4 -30 -10 -30 -5 0 -10
-18 -10 -40 0 -32 -4 -40 -18 -40 -13 0 -21 -13 -30 -45 -9 -34 -17 -45 -32
-45 -11 0 -20 -4 -20 -10 0 -5 -13 -10 -30 -10 -16 0 -30 -4 -30 -10 0 -5 -11
-10 -25 -10 -14 0 -25 5 -25 10 0 6 -7 10 -15 10 -8 0 -15 5 -15 10 0 6 -11
10 -25 10 -14 0 -25 5 -25 10 0 6 -6 10 -14 10 -8 0 -16 7 -20 15 -3 8 -12 15
-20 15 -21 0 -36 61 -36 143 0 60 -2 67 -20 67 -18 0 -20 7 -20 79 0 74 1 80
22 83 15 2 24 13 30 36 5 17 15 32 23 32 7 0 17 9 20 20 3 11 13 20 21 20 8 0
14 5 14 10 0 6 11 10 25 10 14 0 25 5 25 10 0 6 20 10 45 10 25 0 45 -4 45
-10z"/>
<path d="M6922 8399 c-7 -28 -12 -59 -12 -70 0 -10 -4 -19 -10 -19 -5 0 -10
-11 -10 -25 0 -18 -5 -25 -19 -25 -16 0 -21 -12 -31 -70 -6 -38 -15 -70 -20
-70 -4 0 -11 -16 -14 -35 -4 -19 -11 -35 -16 -35 -6 0 -10 -9 -10 -20 0 -13
-7 -20 -20 -20 -11 0 -20 -6 -20 -12 0 -33 -22 -88 -35 -88 -8 0 -15 -3 -15
-7 0 -5 -11 -21 -25 -37 -14 -16 -25 -33 -25 -38 0 -13 -68 -9 -73 5 -4 10 -6
10 -6 0 -1 -7 -7 -13 -15 -13 -18 0 -23 -16 -31 -112 -4 -43 -11 -78 -16 -78
-5 0 -9 -22 -9 -50 0 -38 -4 -50 -15 -50 -11 0 -15 -12 -15 -45 0 -41 2 -45
25 -45 14 0 25 -4 25 -10 0 -5 13 -10 29 -10 29 0 30 1 36 65 4 36 11 65 16
65 5 0 9 23 9 50 0 43 3 50 20 50 13 0 20 7 20 20 0 13 7 20 20 20 11 0 20 -4
20 -10 0 -5 23 -10 50 -10 28 0 50 -4 50 -10 0 -5 16 -10 35 -10 19 0 35 -4
35 -10 0 -5 18 -10 40 -10 22 0 40 -4 40 -10 0 -5 20 -10 45 -10 25 0 45 -4
45 -10 0 -5 23 -10 50 -10 28 0 50 -4 50 -10 0 -5 16 -10 35 -10 19 0 35 -4
35 -10 0 -5 14 -10 30 -10 28 0 30 -3 30 -35 0 -19 -5 -79 -11 -134 -13 -117
-6 -131 59 -131 36 0 40 3 46 31 3 17 6 42 6 55 0 13 5 24 10 24 6 0 10 23 10
50 0 28 5 50 10 50 6 0 10 20 10 45 0 25 5 45 10 45 6 0 10 23 10 50 0 49 -1
50 -30 50 -16 0 -30 5 -30 10 0 6 -13 10 -29 10 -28 0 -28 0 -23 53 3 28 9 54
13 55 5 2 9 26 9 53 0 27 4 49 9 49 5 0 12 38 16 85 4 47 11 85 16 85 5 0 9
20 9 45 0 25 5 45 10 45 6 0 10 23 10 50 0 28 5 50 10 50 16 0 12 99 -4 116
-8 8 -33 14 -55 14 -23 0 -41 5 -41 10 0 6 -16 10 -35 10 -19 0 -35 5 -35 10
0 6 -22 10 -50 10 -27 0 -50 5 -50 10 0 6 -13 10 -30 10 -16 0 -30 5 -30 10 0
6 -29 10 -68 10 l-69 0 -11 -51z m158 -99 c0 -5 23 -10 50 -10 28 0 50 -4 50
-10 0 -5 16 -10 36 -10 l37 0 -6 -37 c-4 -21 -9 -71 -13 -110 -4 -40 -11 -73
-15 -73 -5 0 -9 -22 -9 -49 0 -27 -4 -51 -10 -53 -5 -1 -12 -40 -16 -85 -5
-60 -11 -83 -20 -83 -10 0 -14 -13 -14 -40 0 -38 -2 -40 -30 -40 -16 0 -30 5
-30 10 0 6 -20 10 -45 10 -25 0 -45 5 -45 10 0 6 -18 10 -40 10 -22 0 -40 5
-40 10 0 6 -18 10 -40 10 -22 0 -40 5 -40 10 0 6 -13 10 -30 10 -33 0 -36 5
-17 25 30 35 37 45 37 59 0 8 5 18 10 21 6 3 10 15 10 26 0 11 7 19 16 19 26
0 41 23 54 83 7 31 19 57 25 57 7 0 16 20 19 45 4 25 11 45 16 45 5 0 12 23
16 50 4 28 10 50 15 50 5 0 9 11 9 25 0 21 5 25 30 25 17 0 30 -4 30 -10z"/>
<path d="M4430 8380 c0 -5 -13 -10 -30 -10 -16 0 -30 -4 -30 -10 0 -5 -13 -10
-30 -10 -16 0 -30 -4 -30 -10 0 -5 -16 -10 -35 -10 -19 0 -35 -4 -35 -10 0 -5
-11 -10 -25 -10 -14 0 -25 -4 -25 -10 0 -5 -13 -10 -30 -10 -16 0 -30 -4 -30
-9 0 -5 -29 -12 -65 -16 -36 -3 -65 -11 -65 -16 0 -5 -9 -9 -20 -9 -11 0 -20
-4 -20 -10 0 -5 -11 -10 -25 -10 -24 0 -25 -3 -25 -60 0 -33 4 -60 10 -60 6 0
10 -11 10 -25 0 -15 6 -25 14 -25 9 0 15 -21 20 -69 4 -38 11 -71 16 -73 6 -2
13 -31 16 -65 4 -40 11 -63 19 -63 8 0 15 -22 20 -55 3 -30 11 -55 16 -55 5 0
9 -18 9 -40 0 -22 5 -40 10 -40 6 0 10 -13 10 -30 0 -16 5 -30 10 -30 6 0 10
-11 10 -25 0 -15 6 -25 14 -25 7 0 17 -15 21 -32 4 -18 9 -27 12 -20 2 6 16
12 29 12 13 0 24 5 24 10 0 6 9 10 20 10 16 0 20 7 20 35 0 19 -4 35 -10 35
-5 0 -10 18 -10 40 0 22 -4 40 -9 40 -5 0 -12 25 -16 55 -4 38 -11 55 -21 55
-8 0 -14 10 -14 22 0 13 -8 73 -17 135 -11 78 -21 113 -30 113 -8 0 -13 12
-13 30 0 17 -4 30 -10 30 -5 0 -10 16 -10 35 0 19 -4 35 -10 35 -5 0 -10 5
-10 10 0 6 16 10 35 10 19 0 35 5 35 10 0 6 14 10 30 10 17 0 30 5 30 10 0 6
11 10 25 10 14 0 25 5 25 10 0 6 14 10 30 10 17 0 30 5 30 10 0 6 16 10 35 10
19 0 35 5 35 10 0 6 9 10 20 10 16 0 20 -7 20 -30 0 -16 4 -30 9 -30 5 0 13
-29 16 -65 4 -36 11 -65 16 -65 5 0 9 -13 9 -30 0 -16 5 -30 10 -30 6 0 10
-12 10 -27 0 -62 12 -103 30 -103 14 0 19 -16 29 -92 7 -51 16 -94 22 -96 5
-2 9 -17 9 -33 0 -16 5 -29 10 -29 6 0 10 -9 10 -20 0 -16 7 -20 30 -20 17 0
30 5 30 10 0 6 11 10 24 10 13 0 27 8 30 17 11 28 -15 193 -30 193 -8 0 -15
23 -19 65 -4 36 -11 65 -16 65 -5 0 -9 14 -9 30 0 19 -5 30 -14 30 -9 0 -15
20 -20 63 -3 34 -11 64 -16 65 -6 2 -10 17 -10 33 0 16 -4 29 -10 29 -5 0 -10
11 -10 25 0 13 -5 56 -12 95 -10 56 -16 70 -30 70 -10 0 -18 5 -18 10 0 6 -13
10 -30 10 -16 0 -30 -4 -30 -10z"/>
<path d="M7668 8262 c-17 -3 -18 -32 -18 -437 0 -387 -2 -438 -17 -470 -9 -19
-22 -35 -27 -35 -6 0 -25 -16 -41 -35 -17 -19 -34 -35 -38 -35 -26 0 -62 -75
-51 -105 7 -17 37 -25 97 -25 44 0 48 2 64 35 9 19 21 35 26 35 16 0 87 82 87
101 0 10 5 19 12 19 13 0 58 48 58 62 0 4 5 8 11 8 17 0 49 40 49 62 0 10 4
18 9 18 5 0 12 9 16 19 3 10 17 22 30 25 14 4 25 10 25 15 0 4 9 18 20 31 11
13 20 31 20 42 0 10 6 18 14 18 8 0 18 9 21 20 3 11 12 20 20 20 8 0 17 9 20
20 3 11 17 23 30 26 22 5 34 26 50 82 4 13 14 22 25 22 10 0 21 8 25 19 7 25
36 56 58 64 9 3 17 14 17 22 0 9 6 23 13 30 29 34 37 45 37 55 0 14 -25 40
-39 40 -6 0 -11 5 -11 10 0 6 -15 10 -34 10 -26 0 -36 -5 -41 -20 -3 -11 -14
-20 -24 -20 -17 0 -51 -56 -51 -85 0 -8 -5 -15 -11 -15 -7 0 -22 -11 -35 -25
-13 -14 -27 -25 -33 -25 -5 0 -13 -9 -16 -20 -3 -11 -13 -20 -21 -20 -8 0 -14
-8 -14 -18 0 -11 -8 -28 -17 -40 -10 -11 -24 -29 -32 -40 -8 -11 -23 -23 -33
-25 -10 -3 -18 -13 -18 -22 0 -9 -6 -22 -12 -29 -7 -8 -20 -23 -28 -35 -8 -11
-20 -21 -27 -21 -6 0 -15 -9 -18 -20 -15 -48 -25 -12 -25 95 0 70 4 115 10
115 6 0 10 79 10 216 0 172 -3 218 -14 230 -8 7 -16 18 -18 22 -3 10 -83 20
-110 14z"/>
<path d="M8534 7850 c-4 -19 -13 -30 -23 -30 -12 0 -21 -15 -31 -50 -7 -27
-19 -50 -26 -50 -6 0 -15 -11 -18 -25 -4 -14 -11 -25 -16 -25 -6 0 -10 -9 -10
-20 0 -11 -4 -20 -10 -20 -5 0 -10 -9 -10 -20 0 -11 -4 -20 -9 -20 -5 0 -11
-13 -14 -30 -4 -18 -13 -30 -22 -30 -8 0 -15 -7 -15 -15 0 -8 -4 -15 -10 -15
-5 0 -10 -9 -10 -19 0 -11 -6 -26 -14 -34 -8 -8 -18 -31 -21 -51 -4 -20 -12
-36 -17 -36 -19 0 -38 -30 -50 -79 -8 -38 -16 -51 -29 -51 -21 0 -33 -31 -24
-60 4 -13 15 -20 30 -20 13 0 25 -4 27 -10 5 -15 68 -25 68 -11 0 7 7 19 15
27 8 9 15 24 15 35 0 10 5 19 10 19 6 0 10 9 10 20 0 11 7 20 15 20 9 0 18 12
22 30 3 17 9 30 14 30 5 0 9 5 9 11 0 7 8 19 18 28 11 9 22 28 26 44 8 32 26
35 46 7 8 -11 20 -20 28 -20 21 0 39 -23 47 -58 4 -22 12 -32 26 -32 17 0 19
-8 19 -70 0 -61 -2 -70 -19 -70 -16 0 -19 -12 -25 -104 -7 -116 -3 -136 28
-136 12 0 28 -9 36 -20 8 -12 26 -20 41 -20 26 0 28 3 35 68 11 86 11 339 1
375 -4 15 -14 27 -22 27 -8 0 -15 5 -15 10 0 6 25 10 55 10 30 0 55 5 55 10 0
6 9 10 20 10 11 0 20 5 20 10 0 6 7 10 15 10 8 0 15 5 15 10 0 6 6 10 13 10 7
0 19 9 27 20 8 11 22 20 32 20 9 0 19 9 23 19 3 10 17 22 30 25 14 4 25 11 25
16 0 6 9 10 19 10 22 0 35 30 26 60 -3 11 -14 20 -23 20 -10 0 -24 9 -32 20
-15 21 -50 28 -50 10 0 -5 -11 -10 -24 -10 -16 0 -27 -7 -31 -20 -3 -11 -12
-20 -18 -20 -7 0 -19 -9 -27 -20 -8 -11 -19 -20 -24 -20 -5 0 -16 -8 -25 -18
-9 -11 -28 -22 -43 -26 -16 -3 -28 -11 -28 -16 0 -6 -31 -10 -70 -10 -56 0
-75 4 -91 19 -21 19 -21 20 -3 95 14 60 21 76 36 76 10 0 20 10 24 25 3 14 10
25 15 25 5 0 9 9 9 19 0 11 7 26 15 35 17 16 20 46 6 46 -5 0 -13 9 -16 20 -3
11 -13 20 -21 20 -8 0 -14 5 -14 10 0 6 -14 10 -30 10 -26 0 -31 -5 -36 -30z"/>
<path d="M3080 7810 c0 -5 -13 -10 -30 -10 -16 0 -30 -4 -30 -10 0 -5 -7 -10
-15 -10 -8 0 -15 -4 -15 -10 0 -5 -7 -10 -15 -10 -8 0 -15 -4 -15 -10 0 -5
-11 -10 -23 -10 -16 0 -28 -9 -35 -25 -6 -14 -20 -25 -30 -25 -18 0 -42 -37
-42 -65 0 -8 -4 -15 -10 -15 -5 0 -10 -9 -10 -20 0 -11 -4 -20 -10 -20 -5 0
-10 -24 -10 -54 0 -34 -5 -57 -12 -60 -10 -5 -10 -7 0 -12 7 -3 12 -25 12 -55
0 -27 5 -49 10 -49 6 0 10 -11 10 -25 0 -14 4 -25 9 -25 4 0 14 -27 21 -60 10
-45 17 -60 30 -60 11 0 23 -16 34 -45 13 -32 23 -45 37 -45 10 0 19 -4 19 -8
0 -14 36 -52 49 -52 6 0 11 -4 11 -10 0 -5 10 -10 23 -10 12 0 29 -9 37 -20
12 -17 26 -20 87 -20 42 0 73 4 73 10 0 6 16 10 35 10 19 0 35 5 35 10 0 6 9
10 20 10 11 0 20 5 20 10 0 6 7 10 16 10 17 0 54 36 54 52 0 4 11 8 25 8 14 0
25 4 25 9 0 10 46 61 55 61 13 0 37 31 45 59 5 18 4 46 -2 70 -8 33 -15 41
-33 41 -12 0 -31 -11 -41 -26 -35 -47 -51 -64 -63 -64 -6 0 -11 -4 -11 -9 0
-13 -56 -71 -69 -71 -6 0 -11 -4 -11 -9 0 -6 -20 -13 -45 -17 -25 -3 -45 -10
-45 -15 0 -5 -25 -9 -55 -9 -30 0 -55 5 -55 10 0 6 -11 10 -25 10 -15 0 -29 8
-36 22 -15 28 -35 48 -47 48 -12 0 -22 25 -22 56 0 15 6 24 15 24 9 0 27 11
41 25 14 14 36 25 49 25 15 0 26 7 30 20 3 11 13 20 21 20 8 0 14 5 14 10 0 6
11 10 24 10 16 0 27 7 31 20 4 12 15 20 28 20 13 0 29 9 37 20 8 11 20 20 27
20 7 0 13 5 13 10 0 6 7 10 15 10 8 0 15 4 15 9 0 5 10 11 23 13 14 2 23 11
25 26 2 12 10 22 18 22 8 0 14 5 14 10 0 6 -6 10 -14 10 -8 0 -17 15 -21 36
-6 34 -73 114 -94 114 -5 0 -14 14 -21 30 -9 21 -19 30 -36 30 -13 0 -24 5
-24 10 0 6 -16 10 -35 10 -19 0 -35 5 -35 10 0 6 -20 10 -45 10 -25 0 -45 -4
-45 -10z m90 -130 c0 -5 10 -10 23 -10 17 0 28 -10 40 -35 9 -20 17 -42 17
-50 0 -8 9 -15 20 -15 11 0 20 -4 20 -10 0 -5 -8 -10 -18 -10 -9 0 -26 -11
-36 -25 -11 -14 -29 -25 -42 -25 -13 0 -24 -4 -24 -10 0 -5 -6 -10 -13 -10 -7
0 -19 -9 -27 -20 -8 -11 -22 -20 -32 -20 -10 0 -18 -4 -18 -10 0 -5 -7 -10
-15 -10 -8 0 -15 -4 -15 -10 0 -5 -7 -10 -15 -10 -8 0 -15 -4 -15 -10 0 -5 -7
-10 -15 -10 -8 0 -15 -4 -15 -10 0 -5 -7 -10 -15 -10 -8 0 -15 -4 -15 -10 0
-5 -8 -10 -19 -10 -23 0 -31 35 -31 140 0 91 5 110 31 110 12 0 19 7 19 20 0
11 6 20 13 20 7 0 19 9 27 20 8 11 22 20 32 20 10 0 18 5 18 10 0 6 27 10 60
10 33 0 60 -4 60 -10z"/>
<path d="M9144 7430 c-4 -16 -10 -30 -15 -30 -5 0 -9 -9 -9 -20 0 -11 4 -20 9
-20 5 0 13 -9 16 -20 4 -12 18 -23 36 -27 16 -3 31 -14 34 -24 4 -11 14 -19
24 -19 10 0 23 -12 30 -27 17 -36 -5 -113 -31 -113 -10 0 -24 -11 -30 -25 -6
-14 -15 -25 -20 -25 -14 0 -38 -27 -38 -43 0 -8 -13 -29 -30 -47 -16 -18 -30
-36 -30 -41 0 -5 -7 -9 -15 -9 -8 0 -15 -5 -15 -10 0 -12 -11 -26 -57 -75 -18
-19 -33 -41 -33 -50 0 -8 -4 -15 -8 -15 -5 0 -14 -11 -20 -25 -7 -14 -20 -25
-31 -25 -21 0 -31 -33 -23 -75 3 -18 11 -25 27 -25 15 0 26 -8 30 -20 12 -38
39 -23 105 57 6 7 10 19 10 28 0 8 5 15 10 15 16 0 80 70 80 87 0 16 23 43 38
43 5 0 15 14 22 30 7 17 20 30 29 30 10 0 22 14 29 34 14 38 44 76 61 76 6 0
11 9 11 19 0 24 52 81 74 81 9 0 16 -4 16 -9 0 -16 78 -91 94 -91 9 0 16 -4
16 -8 0 -11 35 -52 44 -52 14 0 33 25 40 53 4 18 13 27 26 27 13 0 20 7 20 20
0 13 -7 20 -19 20 -11 0 -22 9 -26 19 -3 11 -16 23 -28 27 -22 7 -38 22 -67
63 -8 12 -21 21 -28 21 -17 0 -69 54 -77 81 -4 12 -15 19 -30 19 -24 0 -55 23
-55 41 0 5 -5 9 -11 9 -13 0 -69 58 -69 71 0 5 -9 9 -20 9 -11 0 -20 5 -20 10
0 6 -16 10 -35 10 -31 0 -36 -3 -41 -30z"/>
<path d="M2360 7331 c0 -5 -9 -13 -20 -16 -11 -3 -20 -15 -20 -26 0 -10 -4
-19 -10 -19 -18 0 -10 -31 14 -55 14 -13 27 -34 31 -45 3 -11 13 -20 21 -20 8
0 14 -4 14 -9 0 -5 9 -12 19 -16 11 -3 23 -15 26 -26 4 -10 11 -19 17 -19 15
0 43 -35 58 -70 7 -18 20 -30 30 -30 12 0 22 -12 30 -35 6 -19 17 -35 24 -35
6 0 18 -9 26 -21 8 -12 27 -35 43 -51 15 -17 27 -34 27 -39 0 -5 5 -9 10 -9 6
0 35 -25 65 -55 49 -51 85 -69 85 -45 0 6 8 10 18 10 18 0 42 37 42 65 0 28
-24 65 -41 65 -10 0 -21 9 -24 20 -6 18 -40 56 -87 96 -7 6 -20 21 -28 33 -8
11 -20 21 -27 21 -7 0 -13 4 -13 9 0 5 -12 23 -27 40 -48 53 -53 60 -53 71 0
5 -6 10 -14 10 -7 0 -19 14 -26 30 -7 17 -20 30 -30 30 -10 0 -23 13 -30 30
-13 31 -43 70 -54 70 -4 0 -17 11 -30 25 -23 24 -66 35 -66 16z"/>
<path d="M9840 6860 c0 -5 -9 -10 -19 -10 -11 0 -22 -8 -26 -19 -9 -28 -40
-61 -59 -61 -9 0 -27 -11 -40 -25 -13 -14 -32 -25 -43 -25 -14 0 -26 -13 -38
-40 -14 -30 -24 -40 -42 -40 -12 0 -23 -4 -23 -8 0 -14 -36 -52 -49 -52 -12 0
-25 -9 -66 -47 -13 -13 -27 -23 -31 -23 -3 0 -19 -13 -34 -30 -15 -16 -34 -30
-40 -30 -15 0 -47 -36 -56 -62 -3 -10 0 -42 7 -71 12 -50 28 -77 47 -77 5 0
12 -13 15 -29 4 -18 14 -32 27 -36 11 -3 20 -11 20 -16 0 -5 7 -9 15 -9 8 0
15 -7 15 -15 0 -27 23 -65 39 -65 9 0 23 -9 31 -20 8 -11 22 -20 32 -20 10 0
18 -4 18 -10 0 -5 6 -10 14 -10 8 0 16 -5 18 -12 3 -7 32 -11 83 -11 51 0 80
4 83 11 2 7 14 12 27 12 15 0 26 7 30 20 3 11 12 20 19 20 8 0 19 14 26 30 7
17 19 30 26 30 8 0 14 9 14 20 0 11 7 20 15 20 12 0 15 17 15 95 0 78 -3 95
-15 95 -8 0 -15 7 -15 15 0 8 -6 15 -13 15 -8 0 -19 22 -27 50 -7 28 -19 50
-25 50 -13 0 -35 42 -35 65 0 7 -9 17 -20 20 -26 8 -27 45 -1 45 11 0 23 12
31 30 7 17 18 30 24 30 6 0 18 9 26 20 8 11 20 20 27 20 7 0 13 5 13 10 0 6 5
10 10 10 15 0 50 38 50 55 0 8 -4 15 -9 15 -5 0 -11 14 -14 30 -4 18 -13 30
-22 30 -8 0 -15 5 -15 10 0 6 -9 10 -20 10 -11 0 -20 -4 -20 -10z m-189 -370
c14 0 21 -9 26 -30 3 -16 9 -30 14 -30 4 0 11 -9 14 -20 3 -11 13 -20 21 -20
8 0 14 -7 14 -15 0 -8 5 -15 10 -15 6 0 10 -9 10 -20 0 -11 5 -20 10 -20 6 0
10 -22 10 -50 0 -27 -4 -50 -10 -50 -5 0 -10 -9 -10 -20 0 -13 -9 -22 -25 -26
-14 -3 -25 -10 -25 -15 0 -5 -7 -9 -15 -9 -8 0 -15 -4 -15 -10 0 -5 -25 -10
-55 -10 -30 0 -55 5 -55 10 0 6 -5 10 -11 10 -6 0 -16 6 -23 13 -8 6 -23 19
-35 27 -11 8 -21 21 -21 29 0 7 -9 22 -20 31 -12 10 -25 33 -30 51 -8 28 -7
35 11 48 12 9 31 26 44 39 13 12 31 22 40 22 8 0 15 4 15 8 0 13 36 52 46 52
5 0 16 9 24 20 8 11 16 16 18 10 2 -5 12 -10 23 -10z"/>
<path d="M5500 6830 c-517 -43 -1012 -143 -1370 -276 -36 -13 -85 -31 -109
-39 -75 -27 -301 -146 -395 -208 -290 -194 -490 -519 -561 -912 -52 -284 -59
-376 -59 -755 0 -273 4 -394 17 -525 28 -262 77 -525 117 -625 10 -25 30 -84
44 -132 15 -48 49 -127 77 -175 125 -216 268 -342 555 -489 82 -42 154 -80
160 -85 10 -8 306 -131 424 -175 261 -99 487 -149 722 -160 169 -8 161 -12
224 110 20 39 71 132 112 206 41 74 90 162 107 195 18 33 52 96 77 140 25 44
94 169 154 278 84 152 113 197 129 197 28 0 321 -187 338 -216 15 -26 -3 -48
-114 -139 -178 -146 -522 -497 -713 -726 -217 -261 -281 -342 -405 -508 -19
-25 -52 -66 -73 -90 -21 -24 -38 -54 -38 -66 0 -25 35 -75 52 -75 6 0 45 -22
87 -48 42 -27 141 -86 221 -132 226 -130 372 -216 540 -315 85 -51 187 -110
225 -132 39 -22 151 -87 250 -143 99 -57 234 -134 300 -173 206 -122 236 -137
266 -137 31 0 86 29 364 193 94 55 224 131 290 170 66 38 143 83 170 100 28
16 129 75 225 130 96 55 200 115 230 134 30 19 101 61 158 95 76 45 104 67
109 86 7 31 -3 244 -17 332 -32 204 -99 415 -175 555 -83 153 -125 217 -202
305 -18 21 -33 44 -33 53 0 19 46 56 165 132 50 32 114 80 143 106 30 27 57
49 62 49 18 0 168 199 222 295 124 220 191 543 219 1065 17 323 0 808 -37
1010 -38 210 -132 502 -187 580 -9 13 -17 30 -17 36 0 6 -9 19 -20 29 -11 10
-33 41 -49 70 -78 139 -306 330 -508 426 -68 33 -127 59 -133 59 -6 0 -50 15
-98 34 -99 38 -378 116 -416 116 -13 0 -37 5 -52 11 -104 39 -623 122 -939
149 -163 14 -705 21 -835 10z m990 -149 c303 -37 678 -99 775 -127 28 -7 120
-32 205 -55 175 -47 357 -113 473 -171 160 -80 367 -260 451 -391 47 -74 122
-227 142 -292 l17 -51 -42 -118 c-22 -65 -55 -139 -73 -164 -45 -66 -142 -170
-218 -235 -115 -96 -349 -231 -519 -299 -42 -16 -98 -39 -126 -50 -69 -27 -71
-30 -51 -83 13 -33 23 -45 38 -45 54 0 437 174 548 250 30 20 69 44 85 53 86
44 280 245 358 370 61 99 67 95 91 -63 53 -346 40 -1000 -29 -1421 -48 -287
-88 -403 -195 -562 -114 -170 -296 -330 -486 -429 l-62 -32 -38 18 c-22 9 -86
50 -144 89 l-105 72 0 170 c0 94 2 316 3 495 4 425 -18 650 -80 840 -36 111
-74 176 -123 212 -107 79 -257 181 -505 345 -146 97 -294 196 -330 222 -35 25
-84 57 -107 71 -24 14 -134 86 -246 161 -255 171 -268 179 -304 179 -36 0 -50
-15 -99 -105 -21 -38 -50 -88 -64 -110 -27 -40 -160 -282 -160 -290 0 -3 -13
-26 -28 -52 -165 -276 -342 -605 -358 -665 -7 -29 -18 -102 -24 -163 -6 -60
-15 -148 -20 -195 -39 -341 -39 -1040 0 -1350 5 -41 10 -127 12 -190 l3 -115
-40 -3 c-58 -5 -250 25 -395 60 -237 59 -752 277 -995 421 -342 204 -487 507
-572 1191 -25 204 -26 912 0 1104 17 136 28 172 50 172 8 0 21 -16 30 -36 45
-94 207 -272 332 -366 153 -114 191 -136 395 -232 249 -118 608 -229 909 -281
132 -23 149 -21 166 19 8 19 12 42 9 50 -6 17 -77 40 -154 51 -80 12 -408 95
-538 136 -318 101 -653 282 -820 443 -74 71 -153 177 -199 266 -31 61 -45 78
-77 93 -35 17 -38 21 -32 48 9 45 105 271 125 294 9 11 34 47 56 80 80 125
301 317 435 377 36 16 72 33 80 38 74 44 356 153 465 181 39 9 113 29 165 42
158 42 443 94 660 121 113 14 219 28 235 30 17 2 219 3 450 1 359 -2 445 -5
595 -24z m-459 -1266 c19 -14 305 -205 635 -425 331 -219 614 -414 629 -432
82 -97 132 -279 146 -533 14 -243 8 -960 -8 -976 -8 -8 -28 -3 -80 23 -37 19
-99 50 -138 69 l-70 34 -6 75 c-5 80 -16 109 -57 152 -35 38 -72 43 -125 20
-32 -14 -51 -32 -68 -62 -36 -64 -45 -67 -141 -47 -81 17 -86 17 -159 -2 -42
-11 -93 -26 -114 -35 -48 -20 -99 -20 -116 0 -7 8 -26 22 -43 31 -50 25 -299
193 -328 221 l-28 26 1 575 c1 317 4 587 8 601 7 23 10 21 37 -35 39 -79 83
-113 166 -127 93 -15 127 -6 187 50 73 69 96 125 95 237 -1 145 -47 236 -145
285 -21 11 -53 20 -72 20 -49 0 -130 -45 -171 -94 -40 -49 -86 -131 -87 -155
0 -12 -3 -11 -9 4 -10 23 -13 508 -3 518 12 12 29 7 64 -18z m-201 -419 c0
-162 -3 -301 -6 -310 -8 -22 -23 -20 -86 9 -67 31 -140 33 -183 5 -69 -46 -87
-15 -38 66 19 31 50 88 68 124 19 37 58 108 87 158 29 51 72 125 96 167 23 41
47 75 52 75 6 0 10 -107 10 -294z m408 -40 l37 -35 0 -84 c0 -92 -10 -114 -67
-143 -35 -18 -50 -11 -76 35 -47 82 -35 194 25 241 34 26 37 26 81 -14z m-515
-436 c32 -37 51 -124 45 -203 -4 -56 -7 -63 -52 -104 l-47 -45 -42 35 c-55 45
-67 70 -67 141 0 75 15 126 52 170 38 46 76 48 111 6z m-331 -152 c9 -150 53
-241 143 -293 58 -35 157 -38 207 -7 20 12 47 22 62 22 24 0 26 -4 28 -42 2
-58 -3 -151 -9 -161 -6 -10 -42 10 -74 40 -15 14 -43 27 -65 29 -103 13 -186
-122 -160 -259 9 -45 77 -122 122 -137 44 -15 67 -9 127 31 55 36 73 30 63
-23 -13 -71 -126 -278 -152 -278 -7 0 -27 30 -44 67 -17 37 -38 75 -47 85 -28
31 -119 78 -149 78 -44 -1 -110 -35 -149 -77 l-34 -37 -11 29 c-8 20 -10 72
-6 155 23 500 58 801 100 865 30 45 41 25 48 -87z m130 -1049 c28 -33 33 -100
10 -152 -36 -81 -73 -83 -113 -6 -23 45 -24 87 -5 133 24 58 70 68 108 25z
m1403 -202 c316 -120 376 -148 595 -280 182 -110 394 -295 477 -417 169 -249
231 -423 276 -769 l22 -173 -37 -32 c-20 -17 -98 -67 -175 -111 -197 -113
-465 -269 -553 -322 -216 -131 -298 -175 -311 -167 -21 13 -4 50 59 132 270
344 574 847 643 1062 9 30 29 82 43 115 30 70 33 121 9 147 -43 47 -82 12
-133 -120 -72 -188 -133 -333 -142 -338 -5 -3 -24 -36 -42 -72 -19 -37 -60
-107 -93 -157 -32 -49 -79 -124 -103 -165 -43 -71 -78 -123 -208 -304 -68 -95
-335 -442 -365 -473 -29 -33 -66 -29 -138 16 -35 21 -129 75 -209 121 -322
183 -552 316 -675 390 -142 85 -548 320 -660 382 -76 43 -115 74 -115 94 0 7
34 56 75 109 42 53 87 115 101 138 15 23 48 65 74 92 26 28 67 75 91 105 214
269 632 702 821 852 23 19 75 60 114 91 104 84 235 139 314 133 25 -1 135 -37
245 -79z m-1619 -71 c28 -31 75 -51 192 -82 23 -6 12 -34 -52 -142 -35 -59
-80 -137 -100 -174 -21 -38 -41 -68 -45 -68 -4 0 -14 37 -20 83 -17 106 -27
417 -14 417 5 0 23 -15 39 -34z"/>
<path d="M7030 4383 c-74 -26 -169 -140 -201 -241 -28 -90 -28 -207 0 -282 59
-157 177 -226 317 -185 67 19 108 57 164 150 34 57 34 61 38 184 5 168 -12
217 -108 314 l-67 67 -64 -1 c-35 0 -71 -3 -79 -6z m69 -188 c31 -16 43 -39
67 -134 19 -76 14 -120 -23 -195 -52 -106 -143 -101 -189 10 -19 44 -29 158
-20 208 9 45 82 126 115 126 12 0 35 -7 50 -15z"/>
<path d="M6244 3937 c-63 -42 -124 -154 -124 -226 0 -55 22 -143 45 -177 20
-31 108 -74 153 -74 86 0 160 65 187 164 15 56 16 77 7 143 -12 89 -46 145
-107 180 -57 33 -103 30 -161 -10z m94 -180 c18 -37 7 -122 -19 -148 -23 -23
-33 -24 -53 -3 -23 22 -22 146 0 169 23 23 57 15 72 -18z"/>
<path d="M6435 2926 c-60 -26 -114 -118 -101 -170 9 -35 70 -107 112 -132 79
-48 180 -40 230 19 15 17 36 51 46 75 19 41 19 43 0 85 -49 108 -187 167 -287
123z"/>
<path d="M6354 2426 c-101 -47 -153 -168 -127 -296 4 -21 27 -53 62 -90 65
-66 126 -93 253 -111 78 -11 85 -11 126 10 72 37 141 150 142 231 0 81 -77
188 -169 234 -98 50 -209 58 -287 22z m163 -187 c52 -14 118 -70 128 -112 5
-18 2 -35 -9 -52 -13 -20 -25 -25 -60 -25 -54 0 -149 32 -193 66 -28 21 -33
31 -33 68 0 23 5 47 12 54 15 15 95 15 155 1z"/>
<path d="M7082 2129 c-47 -24 -96 -96 -108 -158 -13 -68 82 -188 183 -233 92
-40 260 -2 312 71 51 71 34 166 -44 245 -65 67 -115 89 -215 93 -72 4 -91 1
-128 -18z m168 -176 c49 -32 65 -78 36 -102 -26 -22 -145 19 -166 58 -15 29
-12 59 6 69 20 11 89 -3 124 -25z"/>
<path d="M5796 1884 c-73 -23 -92 -40 -126 -107 -53 -107 -33 -194 62 -265 82
-63 132 -82 214 -82 100 0 127 12 174 78 37 51 40 61 40 119 0 78 -22 126 -82
178 -89 78 -194 107 -282 79z m117 -188 c43 -19 110 -89 105 -112 -6 -35 -116
-40 -180 -8 -55 28 -85 93 -56 122 16 16 91 15 131 -2z"/>
<path d="M6686 1699 c-48 -11 -101 -50 -121 -89 -19 -37 -19 -103 0 -139 21
-42 90 -98 143 -115 93 -32 160 -16 226 52 37 39 38 42 34 97 -4 50 -10 61
-49 101 -80 82 -153 111 -233 93z"/>
<path d="M2300 6820 c0 -5 -9 -10 -20 -10 -11 0 -20 -4 -20 -10 0 -5 -5 -10
-11 -10 -7 0 -19 -8 -28 -19 -9 -10 -26 -21 -38 -25 -12 -4 -25 -16 -28 -27
-4 -10 -15 -19 -25 -19 -10 0 -22 -9 -25 -20 -3 -11 -10 -20 -15 -20 -5 0 -12
-9 -15 -20 -4 -13 -15 -20 -31 -20 -17 0 -24 5 -24 20 0 11 -4 20 -9 20 -5 0
-14 14 -21 30 -7 17 -18 30 -25 30 -6 0 -18 11 -25 25 -7 14 -19 25 -27 25 -7
0 -13 5 -13 10 0 6 -7 10 -15 10 -8 0 -15 5 -15 10 0 6 -9 10 -20 10 -11 0
-20 -4 -20 -10 0 -5 -5 -10 -11 -10 -18 0 -49 -41 -49 -65 0 -24 31 -65 48
-65 6 0 14 -9 17 -20 3 -11 10 -20 15 -20 5 0 12 -9 15 -20 3 -11 13 -20 21
-20 8 0 14 -4 14 -9 0 -5 8 -11 18 -14 11 -2 22 -17 25 -36 4 -18 13 -31 21
-31 8 0 17 -9 21 -19 6 -21 58 -81 69 -81 10 0 56 -51 56 -61 0 -5 8 -9 18 -9
12 0 25 -14 37 -40 10 -22 23 -40 29 -40 7 0 18 -10 26 -21 29 -42 42 -49 86
-49 30 0 46 5 50 15 4 8 12 15 20 15 8 0 14 5 14 10 0 6 9 10 19 10 11 0 23 9
26 20 3 11 11 20 17 20 15 0 43 35 58 70 7 17 20 30 30 30 12 0 22 14 31 45 7
25 19 45 26 45 8 0 13 12 13 30 0 17 5 30 10 30 6 0 10 32 10 75 0 43 -4 75
-10 75 -5 0 -10 9 -10 20 0 11 -7 20 -15 20 -8 0 -15 8 -15 18 -1 22 -23 52
-40 52 -14 0 -50 37 -50 52 0 4 -43 8 -95 8 -57 0 -95 -4 -95 -10z m90 -130
c0 -5 9 -10 19 -10 11 0 23 -9 26 -20 3 -11 11 -20 16 -20 30 0 44 -35 44
-105 0 -71 -14 -105 -44 -105 -6 0 -11 -4 -11 -10 0 -13 -48 -60 -62 -60 -6 0
-19 -9 -29 -21 l-18 -21 -25 24 c-63 58 -72 66 -86 87 -8 11 -19 21 -26 21 -6
0 -19 18 -29 40 -18 39 -17 41 1 75 10 19 23 35 28 35 10 0 46 39 46 52 0 4 9
8 20 8 11 0 20 5 20 10 0 6 9 10 20 10 11 0 20 5 20 10 0 6 16 10 35 10 19 0
35 -4 35 -10z"/>
<path d="M1506 6375 c-3 -8 -12 -15 -21 -15 -8 0 -15 -9 -15 -20 0 -11 -4 -20
-10 -20 -5 0 -10 -7 -10 -16 0 -18 23 -44 39 -44 6 0 11 -4 11 -10 0 -5 9 -10
20 -10 11 0 20 -4 20 -10 0 -5 6 -10 13 -10 7 0 19 -9 27 -20 8 -12 31 -23 52
-26 24 -4 40 -13 43 -25 4 -11 13 -19 22 -19 13 0 15 -8 9 -46 -3 -25 -13 -52
-21 -60 -8 -9 -15 -22 -15 -30 0 -8 -5 -14 -11 -14 -16 0 -39 -26 -39 -44 0
-9 -4 -16 -10 -16 -5 0 -10 -9 -10 -19 0 -11 -7 -26 -15 -35 -8 -8 -15 -22
-15 -30 0 -9 -4 -16 -9 -16 -5 0 -13 -9 -16 -20 -6 -20 -45 -29 -45 -10 0 6
-7 10 -15 10 -8 0 -15 5 -15 10 0 6 -6 10 -13 10 -7 0 -19 9 -27 20 -8 11 -21
20 -30 20 -9 0 -22 9 -30 20 -8 11 -24 20 -35 20 -11 0 -27 9 -35 20 -15 21
-40 27 -40 10 0 -5 -10 -10 -23 -10 -20 0 -25 -8 -34 -47 -14 -61 -1 -93 38
-93 17 0 38 -10 53 -25 14 -14 33 -25 43 -25 10 0 25 -9 33 -20 8 -11 21 -20
29 -20 14 0 51 -37 51 -52 0 -4 11 -8 25 -8 14 0 25 -4 25 -10 0 -5 9 -10 19
-10 10 0 21 -7 25 -15 3 -8 15 -15 26 -15 11 0 20 -4 20 -10 0 -5 6 -10 13
-10 7 0 19 -9 27 -20 8 -11 22 -20 32 -20 10 0 18 -4 18 -10 0 -5 6 -10 13
-10 7 0 19 -9 27 -20 8 -11 22 -20 32 -20 9 0 20 -9 23 -20 4 -13 15 -20 31
-20 13 0 24 -4 24 -10 0 -18 29 -10 35 10 3 11 13 20 21 20 8 0 14 9 14 20 0
11 7 20 15 20 10 0 15 10 15 30 0 27 -3 30 -29 30 -21 0 -32 6 -36 19 -3 11
-19 22 -35 26 -17 4 -30 11 -30 16 0 5 -7 9 -15 9 -8 0 -15 5 -15 10 0 6 -8
10 -18 10 -10 0 -24 9 -32 20 -8 11 -20 20 -27 20 -7 0 -13 5 -13 10 0 6 -9
10 -20 10 -16 0 -20 7 -20 30 0 20 5 30 15 30 8 0 17 11 21 25 3 14 10 25 15
25 5 0 9 9 9 19 0 11 7 26 15 35 8 8 15 22 15 30 0 9 7 16 15 16 8 0 19 17 25
42 12 42 30 68 49 68 6 0 11 5 11 10 0 18 29 10 35 -10 4 -14 15 -20 35 -20
16 0 35 -7 44 -15 8 -8 21 -15 30 -15 8 0 18 -9 21 -20 3 -11 15 -20 26 -20
10 0 19 -4 19 -10 0 -5 7 -10 15 -10 8 0 15 -4 15 -10 0 -5 7 -10 15 -10 8 0
15 -4 15 -10 0 -5 11 -10 24 -10 20 0 26 9 40 49 18 56 20 81 7 81 -5 0 -13 9
-16 20 -4 13 -15 20 -31 20 -13 0 -24 5 -24 10 0 6 -7 10 -15 10 -8 0 -15 5
-15 10 0 6 -7 10 -15 10 -8 0 -15 5 -15 10 0 6 -9 10 -19 10 -11 0 -23 9 -26
20 -3 11 -14 20 -23 20 -10 0 -24 9 -32 20 -8 11 -29 23 -47 26 -18 3 -33 10
-33 15 0 5 -7 9 -15 9 -8 0 -15 5 -15 10 0 6 -7 10 -15 10 -8 0 -15 5 -15 10
0 6 -7 10 -15 10 -8 0 -15 5 -15 10 0 6 -8 10 -18 10 -10 0 -24 9 -32 20 -8
11 -20 20 -27 20 -6 0 -15 9 -18 20 -4 13 -15 20 -31 20 -13 0 -24 4 -24 10 0
5 -16 12 -35 16 -19 3 -35 10 -35 15 0 15 -38 10 -44 -6z"/>
<path d="M10275 6240 c-3 -11 -12 -20 -20 -20 -8 0 -17 -9 -20 -20 -3 -11 -14
-20 -24 -20 -10 0 -27 -11 -37 -25 -10 -14 -29 -25 -41 -25 -13 0 -24 -8 -28
-20 -3 -11 -10 -20 -15 -20 -5 0 -12 -9 -15 -20 -4 -12 -15 -20 -29 -20 -17 0
-27 -9 -36 -30 -8 -20 -20 -30 -33 -30 -20 0 -67 -43 -67 -62 0 -4 -13 -8 -29
-8 -22 0 -31 -6 -41 -30 -8 -18 -20 -30 -31 -30 -11 0 -19 -4 -19 -9 0 -16
-58 -71 -75 -71 -13 0 -16 -6 -11 -22 3 -13 6 -29 6 -35 0 -7 6 -13 13 -13 7
0 19 -9 27 -20 15 -21 50 -28 50 -10 0 6 6 10 13 10 7 0 19 9 27 20 8 11 20
20 27 20 7 0 13 5 13 10 0 6 7 10 15 10 8 0 15 5 15 10 0 6 7 10 15 10 9 0 18
7 21 15 4 8 12 15 20 15 8 0 14 5 14 10 0 6 6 10 14 10 8 0 18 9 21 20 3 11
12 20 18 20 7 0 19 9 27 20 8 11 20 20 27 20 6 0 15 9 18 20 3 11 13 20 21 20
8 0 14 5 14 10 0 6 7 10 15 10 9 0 26 11 39 25 13 14 28 25 35 25 6 0 11 5 11
10 0 6 6 10 14 10 8 0 18 9 21 20 3 11 13 20 21 20 8 0 14 5 14 10 0 6 6 10
14 10 7 0 19 14 26 30 8 18 20 30 31 30 11 0 19 7 19 15 0 8 -8 15 -18 15 -12
0 -25 14 -37 40 -20 45 -59 56 -70 20z"/>
<path d="M1036 5443 c-4 -13 -12 -23 -17 -23 -5 0 -9 -25 -9 -55 0 -48 2 -55
20 -55 11 0 20 -4 20 -10 0 -5 14 -10 30 -10 17 0 30 -4 30 -10 0 -5 14 -10
30 -10 17 0 30 -4 30 -10 0 -5 20 -10 45 -10 25 0 45 -4 45 -10 0 -5 7 -10 15
-10 8 0 15 -4 15 -10 0 -5 9 -10 20 -10 18 0 20 -7 20 -65 0 -37 -4 -65 -10
-65 -5 0 -10 -16 -10 -35 0 -19 -4 -35 -10 -35 -5 0 -10 -13 -10 -28 0 -16 -8
-39 -19 -50 -16 -19 -29 -22 -90 -22 -41 0 -71 4 -71 10 0 6 -16 10 -35 10
-19 0 -35 5 -35 10 0 6 -11 10 -25 10 -14 0 -25 5 -25 10 0 6 -16 10 -35 10
-19 0 -35 5 -35 10 0 6 -7 10 -15 10 -17 0 -35 -59 -35 -117 l0 -42 60 -7 c33
-4 60 -11 60 -15 0 -5 11 -9 25 -9 14 0 25 -4 25 -10 0 -5 14 -10 30 -10 17 0
30 -4 30 -10 0 -6 37 -10 90 -10 53 0 90 4 90 10 0 6 5 10 11 10 7 0 19 8 28
18 9 10 23 21 32 24 9 4 19 20 22 37 5 21 12 31 25 31 16 0 21 13 30 83 7 45
12 111 13 147 0 36 3 59 6 53 2 -7 18 -13 34 -13 16 0 29 -4 29 -10 0 -5 18
-10 40 -10 22 0 40 -4 40 -10 0 -5 11 -10 25 -10 14 0 25 -4 25 -10 0 -5 14
-10 30 -10 17 0 30 -4 30 -10 0 -5 7 -10 15 -10 8 0 15 5 15 10 0 6 6 10 14
10 10 0 17 15 21 44 10 63 0 86 -36 86 -16 0 -29 5 -29 10 0 6 -13 10 -30 10
-16 0 -30 5 -30 10 0 6 -11 10 -25 10 -14 0 -25 5 -25 10 0 6 -11 10 -25 10
-14 0 -25 5 -25 10 0 6 -16 10 -35 10 -19 0 -35 5 -35 10 0 6 -9 10 -20 10
-11 0 -20 5 -20 10 0 6 -16 10 -35 10 -19 0 -35 5 -35 10 0 6 -15 10 -34 10
-19 0 -36 5 -38 11 -2 6 -25 13 -51 16 -26 3 -47 10 -47 14 0 5 -11 9 -25 9
-14 0 -25 5 -25 10 0 6 -20 10 -44 10 -27 0 -46 5 -49 13 -2 7 -7 2 -11 -10z"/>
<path d="M10420 5280 c0 -5 -16 -10 -35 -10 -19 0 -35 -4 -35 -10 0 -5 -9 -10
-20 -10 -11 0 -20 -4 -20 -10 0 -5 -15 -10 -34 -10 -21 0 -36 -6 -40 -15 -3
-8 -15 -15 -26 -15 -11 0 -20 -4 -20 -9 0 -13 -56 -71 -69 -71 -6 0 -14 -12
-17 -27 -4 -16 -12 -31 -18 -35 -16 -10 -15 -306 1 -316 6 -4 14 -24 18 -45 4
-20 12 -37 17 -37 11 0 38 -25 38 -35 0 -9 27 -35 37 -35 5 0 15 -9 23 -20 8
-11 22 -20 32 -20 10 0 18 -4 18 -10 0 -5 9 -10 20 -10 11 0 20 -4 20 -10 0
-5 20 -10 45 -10 25 0 45 -4 45 -10 0 -5 20 -10 45 -10 25 0 45 5 45 10 0 6
20 10 45 10 25 0 45 5 45 10 0 6 11 10 25 10 14 0 25 5 25 10 0 6 11 10 25 10
14 0 25 5 25 10 0 6 11 10 24 10 16 0 27 7 31 20 3 11 11 20 16 20 9 0 21 8
54 38 7 6 18 12 23 12 5 0 15 27 22 60 8 38 18 60 26 60 11 0 14 23 14 105 0
80 -3 105 -13 105 -8 0 -18 24 -26 65 -9 43 -18 65 -27 65 -8 0 -14 7 -14 16
0 14 -26 42 -77 84 -7 6 -17 10 -23 10 -5 0 -10 5 -10 10 0 6 -7 10 -15 10 -8
0 -15 5 -15 10 0 6 -13 10 -30 10 -16 0 -30 5 -30 10 0 6 -38 10 -95 10 -57 0
-95 -4 -95 -10z m190 -150 c0 -5 14 -10 30 -10 17 0 30 -4 30 -8 0 -13 36 -52
48 -52 17 0 24 -31 29 -125 6 -95 -8 -175 -30 -175 -7 0 -19 -9 -27 -20 -8
-11 -22 -20 -32 -20 -10 0 -18 -4 -18 -10 0 -5 -10 -10 -23 -10 -12 0 -29 -9
-37 -20 -10 -14 -26 -20 -52 -20 -21 0 -38 -4 -38 -10 0 -6 -30 -10 -70 -10
-40 0 -70 4 -70 10 0 6 -9 10 -20 10 -11 0 -20 5 -20 10 0 6 -9 10 -20 10 -11
0 -20 5 -20 10 0 6 -6 10 -14 10 -8 0 -18 9 -21 20 -3 11 -11 20 -16 20 -5 0
-9 13 -9 29 0 16 -5 31 -11 33 -15 5 -14 161 0 166 6 2 11 10 11 18 0 16 35
54 49 54 5 0 13 9 16 20 4 13 15 20 31 20 13 0 24 5 24 10 0 6 7 10 15 10 8 0
15 5 15 10 0 6 20 10 45 10 25 0 45 5 45 10 0 6 33 10 80 10 47 0 80 -4 80
-10z"/>
<path d="M1010 4540 c0 -5 -15 -10 -33 -10 -21 0 -38 -7 -47 -20 -8 -11 -19
-20 -25 -20 -6 0 -19 -16 -29 -35 -13 -23 -26 -35 -41 -35 -18 0 -24 -9 -33
-51 -7 -28 -12 -59 -12 -70 0 -10 -4 -19 -10 -19 -6 0 -10 -42 -10 -105 0 -63
4 -105 10 -105 6 0 10 -12 10 -27 0 -16 5 -45 11 -65 8 -31 15 -38 35 -38 19
0 26 -6 30 -30 4 -18 15 -32 28 -36 11 -4 28 -15 37 -25 9 -11 26 -19 38 -19
11 0 21 -4 21 -10 0 -5 11 -10 25 -10 14 0 25 -4 25 -10 0 -6 28 -10 65 -10
37 0 65 -4 65 -10 0 -5 20 -10 45 -10 25 0 45 5 45 10 0 6 22 10 48 10 36 0
51 5 62 20 8 11 23 20 33 20 10 0 29 11 43 25 14 14 32 25 40 25 8 0 17 13 21
30 3 17 11 30 18 30 15 0 25 22 25 56 0 13 5 24 10 24 6 0 10 16 10 35 0 19 5
35 10 35 6 0 10 30 10 70 0 40 -4 70 -10 70 -5 0 -10 16 -10 35 0 19 -4 35
-10 35 -5 0 -10 11 -10 24 0 34 -10 56 -25 56 -7 0 -15 14 -18 30 -4 17 -13
30 -21 30 -17 0 -66 45 -66 60 0 6 -11 10 -25 10 -14 0 -25 5 -25 10 0 6 -18
10 -40 10 -22 0 -40 5 -40 10 0 6 -53 10 -140 10 -87 0 -140 -4 -140 -10z
m280 -150 c0 -5 15 -10 34 -10 26 0 36 -5 41 -20 4 -13 15 -20 30 -20 20 0 26
-8 39 -54 33 -112 12 -286 -34 -286 -10 0 -22 -9 -25 -20 -4 -14 -15 -20 -36
-20 -16 0 -29 -4 -29 -10 0 -6 -50 -10 -130 -10 -80 0 -130 4 -130 10 0 6 -9
10 -20 10 -11 0 -20 5 -20 10 0 6 -9 10 -20 10 -11 0 -20 5 -20 10 0 6 -6 10
-14 10 -8 0 -20 16 -27 35 -7 19 -18 35 -25 35 -16 0 -26 86 -18 154 5 37 11
56 20 56 8 0 14 7 14 15 0 32 23 65 47 65 12 0 23 5 23 10 0 6 9 10 20 10 11
0 20 5 20 10 0 6 50 10 130 10 80 0 130 -4 130 -10z"/>
<path d="M10190 4195 l0 -65 150 0 c93 0 150 -4 150 -10 0 -6 67 -10 180 -10
l180 0 0 -180 0 -180 -225 0 c-143 0 -225 4 -225 10 0 15 -57 12 -63 -2 -4
-10 -6 -10 -6 0 -1 8 -22 12 -70 12 -78 0 -81 -3 -81 -75 0 -78 -7 -75 171
-75 99 0 159 -4 159 -10 0 -6 75 -10 205 -10 130 0 205 4 205 10 0 6 11 10 24
10 34 0 36 21 36 345 l0 282 -46 7 c-26 3 -204 6 -395 6 l-349 0 0 -65z"/>
<path d="M1510 3610 c0 -5 -16 -10 -35 -10 -19 0 -35 -4 -35 -10 0 -5 -18 -10
-40 -10 -22 0 -40 -4 -40 -10 0 -5 -18 -10 -40 -10 -22 0 -40 -4 -40 -10 0 -5
-20 -10 -45 -10 -25 0 -45 -4 -45 -10 0 -5 -18 -10 -39 -10 -22 0 -41 -4 -43
-10 -1 -5 -40 -12 -85 -16 -46 -4 -83 -11 -83 -15 0 -5 -13 -9 -28 -9 -16 0
-34 -8 -42 -20 -8 -11 -25 -20 -37 -20 -21 0 -23 -4 -23 -60 0 -57 1 -60 24
-60 23 0 24 -3 42 -160 13 -117 21 -160 31 -160 7 0 13 -4 13 -10 0 -6 27 -10
60 -10 33 0 60 4 60 10 0 6 45 10 115 10 70 0 115 4 115 10 0 6 32 10 75 10
43 0 75 -4 75 -10 0 -5 20 -10 45 -10 25 0 45 -4 45 -10 0 -5 12 -10 26 -10
25 0 64 -32 64 -52 0 -20 30 -38 65 -38 20 0 43 6 51 14 16 16 19 76 4 76 -5
0 -10 8 -10 18 0 11 -9 29 -20 42 -11 13 -20 27 -20 32 0 4 -7 8 -15 8 -8 0
-15 4 -15 9 0 6 -20 13 -45 17 -25 3 -45 10 -45 15 0 5 -22 9 -50 9 -27 0 -50
5 -50 10 0 6 -57 10 -150 10 -93 0 -150 -4 -150 -10 0 -6 -33 -10 -80 -10
l-80 0 0 40 c0 22 -4 40 -10 40 -5 0 -10 22 -10 49 0 39 -4 51 -17 54 -17 4
-17 5 0 6 9 0 17 6 17 11 0 6 16 10 35 10 19 0 35 5 35 10 0 6 16 10 35 10 19
0 35 5 35 10 0 6 18 10 40 10 22 0 40 5 40 10 0 6 20 10 45 10 25 0 45 5 45
10 0 6 18 10 40 10 22 0 40 5 40 10 0 6 16 10 35 10 19 0 35 5 35 10 0 6 18
10 40 10 22 0 40 5 40 10 0 6 18 10 40 10 l40 0 0 61 c0 39 -5 65 -14 75 -17
16 -66 19 -66 4z"/>
<path d="M10803 3335 c-7 -8 -13 -23 -13 -35 0 -11 -4 -20 -10 -20 -5 0 -10
-18 -10 -40 0 -22 -4 -40 -10 -40 -5 0 -10 -11 -10 -24 0 -44 -10 -56 -46 -56
-19 0 -34 5 -34 10 0 6 -13 10 -30 10 -16 0 -30 5 -30 10 0 6 -20 10 -45 10
-25 0 -45 5 -45 10 0 6 -11 10 -25 10 -14 0 -25 5 -25 10 0 6 -16 10 -35 10
-19 0 -35 5 -35 10 0 6 -16 10 -35 10 -19 0 -35 5 -35 10 0 6 -13 10 -30 10
-16 0 -30 5 -30 10 0 6 -18 10 -40 10 -22 0 -40 5 -40 10 0 15 -80 12 -96 -4
-20 -21 -20 -126 1 -126 8 0 15 -4 15 -10 0 -5 18 -10 40 -10 22 0 40 -4 40
-9 0 -4 32 -12 70 -15 39 -4 70 -11 70 -17 0 -5 16 -9 35 -9 19 0 35 -4 35
-10 0 -5 16 -10 35 -10 19 0 35 -4 35 -10 0 -5 11 -10 25 -10 14 0 25 -4 25
-10 0 -5 20 -10 45 -10 25 0 45 -4 45 -10 0 -5 14 -10 30 -10 17 0 30 -4 30
-10 0 -5 7 -10 15 -10 10 0 15 -10 15 -30 0 -16 -4 -30 -9 -30 -5 0 -12 -34
-16 -75 -5 -54 -11 -75 -21 -75 -8 0 -14 -8 -14 -19 0 -22 26 -31 88 -31 38 0
42 2 42 25 0 14 5 25 10 25 6 0 10 14 10 30 0 17 5 30 10 30 6 0 10 18 10 40
0 27 4 40 13 40 10 0 18 30 27 100 8 62 18 100 25 100 7 0 16 40 24 110 11 96
11 112 -2 125 -19 19 -78 19 -94 0z"/>
<path d="M10020 2731 c0 -5 -16 -12 -35 -15 -19 -4 -35 -11 -35 -16 0 -6 -6
-10 -14 -10 -8 0 -18 -9 -21 -20 -3 -11 -13 -20 -21 -20 -8 0 -14 -4 -14 -10
0 -5 -6 -10 -13 -10 -8 0 -19 -22 -27 -50 -7 -27 -19 -50 -26 -50 -19 0 -34
-81 -34 -184 0 -113 16 -193 40 -199 9 -2 20 -18 23 -36 4 -18 13 -31 22 -31
8 0 15 -4 15 -10 0 -5 7 -10 15 -10 8 0 15 -4 15 -10 0 -5 6 -10 14 -10 8 0
18 -9 21 -20 4 -11 15 -20 27 -20 11 0 28 -8 37 -19 9 -10 35 -22 59 -26 23
-4 42 -11 42 -16 0 -5 18 -9 40 -9 22 0 40 -4 40 -10 0 -5 20 -10 45 -10 25 0
45 5 45 10 0 6 14 10 30 10 17 0 30 5 30 10 0 6 14 10 30 10 23 0 33 6 42 25
6 14 15 25 21 25 20 0 68 65 78 106 9 36 16 44 34 44 19 0 23 7 29 46 8 60 8
212 0 253 -5 24 -12 31 -30 31 -15 0 -24 6 -24 15 0 28 -66 115 -87 115 -5 0
-15 9 -23 20 -8 11 -21 20 -30 20 -9 0 -22 9 -30 20 -8 11 -20 20 -27 20 -7 0
-13 4 -13 10 0 5 -22 12 -50 16 -27 4 -50 10 -50 15 0 5 -43 9 -95 9 -52 0
-95 -4 -95 -9z m160 -151 c0 -5 11 -10 25 -10 14 0 25 -4 25 -10 0 -5 9 -10
20 -10 11 0 20 -4 20 -9 0 -5 15 -12 34 -15 25 -5 37 -14 46 -36 7 -17 20 -30
30 -30 17 0 40 -38 40 -65 0 -8 7 -15 15 -15 8 0 15 -9 15 -20 0 -11 5 -20 10
-20 6 0 10 -20 10 -45 0 -25 -4 -45 -10 -45 -5 0 -10 -9 -10 -20 0 -11 -6 -20
-13 -20 -7 0 -18 -20 -25 -45 -8 -32 -17 -45 -30 -45 -10 0 -24 -9 -32 -20 -8
-11 -20 -20 -27 -20 -7 0 -13 -4 -13 -10 0 -5 -22 -10 -50 -10 -27 0 -50 5
-50 10 0 6 -16 10 -35 10 -19 0 -35 5 -35 10 0 6 -9 10 -20 10 -11 0 -20 5
-20 10 0 6 -7 10 -15 10 -8 0 -15 5 -15 10 0 6 -11 10 -25 10 -13 0 -35 11
-49 25 -14 14 -30 25 -36 25 -5 0 -10 4 -10 9 0 5 -7 17 -15 25 -9 9 -19 38
-22 66 -4 33 -11 50 -19 50 -8 0 -14 9 -14 20 0 11 6 20 14 20 9 0 15 18 19
54 5 51 29 96 52 96 5 0 21 14 35 30 24 28 29 29 103 30 45 0 77 -4 77 -10z"/>
<path d="M1485 2713 c-16 -3 -37 -13 -46 -24 -9 -10 -25 -19 -35 -19 -11 0
-26 -9 -34 -20 -8 -11 -23 -20 -34 -20 -22 0 -49 -28 -66 -70 -8 -20 -20 -30
-38 -32 -23 -3 -28 -10 -36 -45 -5 -24 -13 -43 -17 -43 -5 0 -9 -52 -9 -115 0
-63 4 -115 8 -115 5 0 15 -25 22 -55 11 -47 17 -55 36 -55 18 0 25 -8 34 -38
12 -46 41 -82 64 -82 10 0 24 -7 32 -15 9 -8 26 -15 40 -15 13 0 24 -4 24 -10
0 -6 38 -10 95 -10 52 0 95 4 95 9 0 5 23 11 52 13 29 3 54 11 56 17 2 6 12
11 23 11 10 0 19 5 19 10 0 6 7 10 15 10 8 0 15 5 15 10 0 6 6 10 14 10 8 0
18 9 21 20 3 11 13 20 21 20 8 0 14 5 14 10 0 6 7 10 15 10 8 0 15 5 15 10 0
6 6 10 14 10 8 0 20 16 26 35 6 19 17 35 24 35 16 0 26 65 26 170 0 92 -8 140
-24 140 -7 0 -17 20 -24 45 -7 28 -18 45 -27 45 -8 0 -15 9 -15 20 0 11 -7 20
-15 20 -8 0 -15 4 -15 8 0 14 -36 52 -50 52 -7 0 -21 10 -32 22 -18 21 -29 22
-146 24 -70 1 -140 0 -157 -3z m225 -133 c0 -5 11 -10 25 -10 14 0 25 -4 25
-9 0 -14 45 -61 58 -61 12 0 22 -24 22 -56 0 -13 5 -24 10 -24 6 0 10 -28 10
-65 0 -36 -4 -65 -9 -65 -5 0 -11 -13 -14 -30 -4 -16 -12 -30 -18 -30 -14 0
-46 -36 -54 -61 -4 -12 -16 -19 -31 -19 -14 0 -27 -7 -30 -15 -4 -8 -12 -15
-20 -15 -8 0 -14 -4 -14 -10 0 -5 -11 -10 -25 -10 -14 0 -25 -4 -25 -10 0 -5
-16 -10 -35 -10 -19 0 -35 -4 -35 -10 0 -5 -22 -10 -50 -10 -27 0 -50 5 -50
10 0 6 -7 10 -15 10 -8 0 -15 5 -15 10 0 6 -8 10 -18 10 -11 0 -24 11 -30 25
-6 14 -16 25 -22 25 -20 0 -40 28 -40 54 0 14 -4 26 -10 26 -6 0 -10 28 -10
65 0 37 4 65 10 65 6 0 10 9 10 20 0 11 5 20 10 20 6 0 10 9 10 20 0 11 6 20
14 20 8 0 18 9 21 20 4 13 15 20 30 20 15 0 26 7 30 19 3 11 15 23 26 26 10 4
19 11 19 16 0 5 16 9 35 9 19 0 35 5 35 10 0 6 11 10 25 10 14 0 25 5 25 10 0
6 27 10 60 10 33 0 60 -4 60 -10z"/>
<path d="M4052 2318 c-7 -7 -12 -22 -12 -34 0 -40 -21 -84 -43 -88 -12 -3 -51
-8 -87 -11 -85 -8 -122 -27 -157 -78 -24 -35 -28 -52 -28 -106 0 -60 2 -65 34
-91 34 -29 105 -54 136 -48 26 4 50 -40 41 -76 -4 -17 -52 -73 -119 -140 -109
-108 -157 -177 -157 -224 0 -39 19 -33 44 15 14 26 84 108 155 182 l129 134
26 -16 c29 -19 66 -22 66 -6 0 6 -19 32 -41 59 -40 48 -41 51 -28 81 11 29 11
34 -5 43 -61 36 -62 39 -43 98 33 105 107 180 212 212 43 14 62 16 83 8 15 -6
52 -16 82 -22 101 -20 105 -41 16 -84 -30 -15 -65 -41 -77 -58 -19 -26 -21
-35 -11 -61 7 -20 8 -36 2 -48 -15 -26 -12 -59 5 -59 8 0 28 20 44 44 44 64
72 68 86 14 11 -42 -12 -95 -53 -125 -53 -38 -60 -49 -67 -101 -4 -32 -1 -59
9 -84 15 -36 15 -38 -6 -52 -12 -9 -39 -16 -59 -16 -29 0 -45 -8 -76 -39 -22
-22 -53 -43 -69 -47 -41 -9 -124 -63 -124 -80 0 -15 35 -19 44 -5 12 18 97 51
134 51 43 0 106 -37 142 -83 22 -27 22 -29 5 -72 -23 -62 -100 -127 -187 -159
-38 -15 -80 -26 -93 -26 -67 0 -263 101 -283 145 -5 11 -15 33 -21 49 -10 24
-15 27 -39 22 -65 -17 -83 -17 -117 -6 -19 6 -49 23 -66 37 -48 41 -53 52
-118 308 -23 90 -62 165 -113 221 l-40 43 -156 -6 c-103 -4 -171 -2 -197 5
-49 14 -67 1 -39 -29 35 -39 69 -49 167 -49 148 0 181 -7 222 -48 41 -41 68
-120 85 -252 15 -114 37 -192 55 -203 8 -4 22 -21 30 -37 9 -17 47 -52 85 -78
67 -48 71 -49 162 -56 70 -5 99 -11 118 -26 14 -11 48 -31 76 -44 28 -13 69
-40 91 -60 51 -45 104 -56 262 -55 157 2 175 6 179 44 5 42 19 55 61 55 86 0
111 70 45 126 l-37 30 11 64 c7 35 16 68 22 74 5 5 29 12 52 15 43 6 54 18 72
78 8 26 -38 82 -104 128 -81 56 -78 146 12 343 45 98 58 118 81 124 15 5 39
11 55 16 40 11 36 42 -8 57 -24 8 -41 23 -55 48 -22 40 -62 59 -109 50 -15 -3
-44 1 -64 10 -20 9 -64 18 -97 20 -37 3 -74 13 -95 26 -39 23 -118 29 -138 9z"/>
<path d="M2105 2060 c-3 -11 -10 -20 -15 -20 -5 0 -12 -9 -15 -20 -3 -11 -13
-20 -21 -20 -8 0 -14 -9 -14 -19 0 -11 -9 -22 -19 -26 -10 -3 -24 -19 -31 -35
-7 -17 -19 -30 -26 -30 -8 0 -14 -7 -14 -15 0 -25 -23 -65 -37 -65 -7 0 -13
-4 -13 -10 0 -5 -7 -10 -15 -10 -8 0 -17 -11 -21 -25 -3 -14 -10 -25 -14 -25
-5 0 -12 -9 -15 -20 -3 -11 -11 -20 -16 -20 -18 0 -40 -29 -50 -65 -6 -19 -15
-35 -20 -35 -18 0 -65 -54 -72 -83 -4 -15 -14 -27 -22 -27 -8 0 -15 -9 -15
-20 0 -11 7 -20 15 -20 8 0 15 -8 15 -19 0 -10 15 -35 34 -55 30 -31 41 -36
80 -36 25 0 46 5 46 10 0 6 9 10 20 10 11 0 20 5 20 10 0 6 13 10 29 10 16 0
36 7 45 15 8 8 22 15 30 15 9 0 16 5 16 10 0 6 11 10 25 10 14 0 25 5 25 10 0
6 9 10 20 10 11 0 20 5 20 10 0 6 7 10 15 10 8 0 15 5 15 10 0 6 10 10 23 10
12 0 29 9 37 20 8 12 26 20 42 20 15 0 28 5 28 10 0 6 9 10 19 10 11 0 21 4
23 8 2 5 15 12 31 16 33 8 37 -12 7 -34 -11 -8 -20 -22 -20 -32 0 -10 -4 -18
-10 -18 -5 0 -10 -9 -10 -20 0 -11 -4 -20 -10 -20 -5 0 -10 -9 -10 -20 0 -11
-4 -20 -9 -20 -5 0 -13 -14 -16 -32 -8 -32 -26 -58 -42 -58 -5 0 -17 -34 -27
-75 -14 -59 -22 -75 -36 -75 -13 0 -20 -11 -25 -37 -4 -21 -12 -41 -18 -45
-19 -11 -14 -112 6 -132 9 -10 17 -22 17 -27 0 -5 9 -9 20 -9 11 0 20 -4 20
-8 0 -14 36 -52 49 -52 6 0 11 5 11 10 0 6 5 10 11 10 6 0 24 14 39 30 15 17
34 30 40 30 14 0 50 38 50 52 0 4 9 8 20 8 10 0 30 11 44 25 14 14 31 25 38
25 8 0 20 9 28 21 30 42 48 59 63 59 9 0 19 9 22 20 3 11 13 20 22 20 9 0 26
11 39 25 13 14 30 25 38 25 8 0 18 9 21 20 3 11 13 20 21 20 8 0 14 5 14 10 0
6 5 10 10 10 16 0 80 68 80 85 0 8 -4 15 -10 15 -5 0 -20 11 -34 25 -31 31
-72 33 -81 5 -3 -11 -14 -20 -24 -20 -10 0 -27 -11 -37 -25 -10 -14 -26 -25
-36 -25 -9 0 -20 -9 -23 -20 -3 -11 -13 -20 -22 -20 -16 0 -53 -36 -53 -52 0
-4 -11 -8 -25 -8 -14 0 -25 -4 -25 -9 0 -18 -31 -41 -55 -41 -16 0 -26 -9 -35
-30 -7 -16 -19 -30 -27 -30 -8 0 -28 -13 -43 -30 -15 -16 -33 -30 -38 -30 -6
0 -12 -6 -15 -12 -2 -7 -8 -10 -12 -6 -4 4 0 14 9 23 9 9 16 25 16 36 0 10 5
19 10 19 6 0 10 9 10 20 0 11 5 20 10 20 6 0 10 7 10 15 0 8 5 15 10 15 6 0
10 9 10 20 0 11 5 20 10 20 6 0 10 9 10 20 0 11 4 20 8 20 5 0 14 25 21 55 8
35 18 55 27 55 8 0 14 8 14 18 0 10 9 24 19 32 11 7 23 31 26 52 4 23 12 38
21 38 8 0 14 9 14 20 0 11 4 20 9 20 13 0 34 96 27 123 -9 36 -41 67 -70 67
-14 0 -26 -4 -26 -10 0 -5 -13 -10 -30 -10 -16 0 -30 -4 -30 -10 0 -5 -7 -10
-15 -10 -8 0 -15 -4 -15 -10 0 -5 -9 -10 -20 -10 -11 0 -20 -4 -20 -10 0 -5
-9 -10 -20 -10 -11 0 -20 -4 -20 -10 0 -5 -13 -10 -28 -10 -16 0 -34 -8 -42
-20 -8 -11 -25 -20 -37 -20 -13 0 -23 -4 -23 -10 0 -5 -7 -10 -15 -10 -8 0
-15 -4 -15 -9 0 -4 -19 -11 -42 -14 -24 -3 -44 -11 -46 -16 -2 -6 -11 -11 -21
-11 -9 0 -23 -9 -31 -20 -8 -12 -26 -20 -42 -20 -15 0 -28 -4 -28 -10 0 -5 -9
-10 -20 -10 -11 0 -20 4 -20 8 0 5 9 19 20 32 11 13 20 27 20 31 0 4 13 10 30
14 24 5 32 14 40 46 6 21 17 39 24 39 8 0 19 14 26 30 7 17 16 30 21 30 5 0 9
9 9 20 0 13 9 22 25 26 14 3 25 9 25 14 0 4 9 17 20 30 11 13 20 31 20 42 0
11 7 18 19 18 13 0 25 14 38 45 10 25 22 45 26 45 12 0 37 27 37 40 0 14 -25
40 -39 40 -5 0 -13 9 -16 20 -4 14 -15 20 -35 20 -20 0 -31 -6 -35 -20z"/>
<path d="M9600 2070 c0 -5 -5 -10 -11 -10 -20 0 -49 -42 -49 -69 0 -25 29 -61
50 -61 6 0 10 -7 10 -15 0 -29 34 -85 52 -85 11 0 20 -10 24 -26 6 -25 37 -64
49 -64 10 0 55 -49 55 -59 0 -21 24 -61 36 -61 7 0 18 -16 25 -35 7 -19 19
-35 26 -35 7 0 13 -4 13 -10 0 -5 7 -10 15 -10 8 0 15 -4 15 -9 0 -5 7 -17 16
-26 9 -9 13 -19 9 -23 -4 -4 -10 -1 -12 6 -3 6 -13 12 -24 12 -10 0 -19 5 -19
10 0 6 -9 10 -20 10 -11 0 -20 5 -20 10 0 6 -8 10 -18 10 -10 0 -24 9 -32 20
-9 13 -31 22 -62 26 -26 4 -48 10 -48 15 0 5 -10 9 -23 9 -12 0 -29 9 -37 20
-8 11 -22 20 -32 20 -10 0 -18 5 -18 10 0 6 -7 10 -15 10 -8 0 -15 5 -15 10 0
6 -13 10 -30 10 -16 0 -30 5 -30 10 0 6 -8 10 -18 10 -10 0 -24 9 -32 20 -8
11 -25 20 -37 20 -13 0 -23 5 -23 10 0 6 -20 10 -45 10 -44 0 -44 -1 -56 -42
-9 -36 -8 -55 6 -115 10 -40 22 -73 27 -73 4 0 8 -9 8 -20 0 -11 6 -20 14 -20
9 0 17 -15 21 -40 4 -22 11 -40 16 -40 5 0 9 -7 9 -15 0 -8 5 -15 10 -15 6 0
10 -9 10 -20 0 -11 6 -20 14 -20 8 0 18 -22 26 -60 7 -33 17 -60 21 -60 5 0 9
-7 9 -15 0 -8 5 -15 10 -15 6 0 10 -9 10 -20 0 -11 5 -20 10 -20 6 0 10 -9 10
-20 0 -11 5 -20 10 -20 6 0 10 -9 10 -19 0 -11 6 -21 13 -24 6 -2 9 -8 5 -12
-5 -5 -16 2 -27 13 -10 12 -24 22 -31 22 -14 0 -50 38 -50 52 0 4 -7 8 -15 8
-9 0 -27 11 -41 25 -14 14 -32 25 -41 25 -15 0 -33 16 -63 59 -8 12 -22 21
-32 21 -9 0 -20 9 -23 20 -3 11 -13 20 -22 20 -16 0 -53 36 -53 52 0 4 -9 8
-20 8 -11 0 -23 7 -26 15 -4 8 -17 15 -30 15 -13 0 -24 5 -24 10 0 19 -41 10
-64 -13 -34 -34 -39 -60 -17 -85 10 -12 24 -22 31 -22 14 0 50 -38 50 -52 0
-4 11 -8 24 -8 16 0 27 -7 31 -19 3 -11 16 -23 28 -27 12 -4 29 -15 38 -25 9
-11 20 -19 25 -19 5 0 16 -9 24 -20 8 -11 22 -20 32 -20 10 0 18 -4 18 -9 0
-13 56 -71 69 -71 6 0 11 -4 11 -9 0 -5 11 -12 25 -15 14 -4 25 -11 25 -16 0
-6 5 -10 11 -10 6 0 28 -18 49 -40 21 -22 45 -40 52 -40 7 0 20 -9 28 -20 15
-21 40 -27 40 -10 0 6 5 10 11 10 17 0 35 23 43 53 4 18 13 27 26 27 24 0 34
31 25 86 -5 33 -11 44 -24 44 -13 0 -21 18 -36 75 -11 46 -23 75 -32 75 -7 0
-13 9 -13 20 0 11 -4 20 -9 20 -5 0 -12 18 -16 40 -4 22 -11 40 -16 40 -5 0
-9 6 -9 13 0 7 -9 19 -20 27 -11 8 -20 22 -20 32 0 10 -4 18 -10 18 -5 0 -10
9 -10 20 0 11 -4 20 -9 20 -5 0 -11 10 -14 23 -3 12 -8 32 -12 44 -6 18 -4 21
14 16 12 -3 21 -9 21 -14 0 -5 9 -9 20 -9 11 0 20 -4 20 -10 0 -5 9 -10 20
-10 11 0 20 -4 20 -10 0 -5 7 -10 15 -10 8 0 15 -4 15 -10 0 -5 11 -10 25 -10
14 0 25 -4 25 -10 0 -5 11 -10 25 -10 14 0 25 -4 25 -10 0 -5 7 -10 15 -10 8
0 15 -4 15 -10 0 -5 9 -10 20 -10 11 0 20 -4 20 -10 0 -5 11 -10 25 -10 14 0
25 -4 25 -10 0 -5 9 -10 19 -10 11 0 26 -7 35 -15 8 -8 26 -15 40 -15 14 0 26
-4 26 -10 0 -5 22 -10 49 -10 40 0 51 4 56 19 3 10 17 22 30 25 13 3 27 15 30
26 3 11 11 20 16 20 5 0 9 14 9 30 0 17 -4 30 -10 30 -5 0 -10 8 -10 18 0 22
-27 56 -52 65 -10 3 -18 15 -18 25 0 21 -32 62 -48 62 -6 0 -14 9 -17 20 -3
11 -10 20 -14 20 -5 0 -11 13 -14 29 -5 22 -13 31 -35 36 -28 6 -52 38 -52 70
0 8 -6 15 -14 15 -8 0 -18 9 -21 20 -4 11 -17 32 -31 45 -13 13 -24 29 -24 35
0 5 -6 10 -14 10 -8 0 -18 9 -21 20 -3 11 -10 20 -15 20 -5 0 -12 9 -15 20 -3
11 -15 20 -25 20 -10 0 -22 9 -25 20 -7 21 -25 28 -25 10z"/>
</g>
</svg>
