<?xml version="1.0" standalone="no"?>
<!DOCTYPE svg PUBLIC "-//W3C//DTD SVG 20010904//EN"
 "http://www.w3.org/TR/2001/REC-SVG-20010904/DTD/svg10.dtd">
<svg version="1.0" xmlns="http://www.w3.org/2000/svg"
 width="174.000000pt" height="96.000000pt" viewBox="0 0 174.000000 96.000000"
 preserveAspectRatio="xMidYMid meet">
<metadata>
Created by potrace 1.13, written by Peter Selinger 2001-2015
</metadata>
<g transform="translate(0.000000,96.000000) scale(0.100000,-0.100000)"
fill="#000000" stroke="none">
<path d="M685 950 c-22 -5 -63 -9 -92 -9 -29 -1 -89 -14 -137 -30 -201 -67
-299 -169 -326 -336 -22 -140 37 -292 133 -342 43 -22 261 -89 333 -102 40 -8
147 -9 329 -5 295 7 291 7 393 77 37 24 53 47 95 134 48 98 51 109 51 181 -1
87 -21 145 -73 204 -17 20 -38 52 -46 71 -28 67 -105 106 -270 138 -113 22
-330 33 -390 19z m269 -46 c26 -3 64 -11 85 -18 25 -9 41 -10 52 -3 9 5 31 7
50 3 47 -9 176 -82 190 -107 13 -25 4 -21 -53 24 l-37 29 -46 -17 c-25 -10
-48 -22 -51 -26 -3 -5 -15 2 -27 15 -15 17 -45 29 -97 40 -87 20 -246 32 -215
17 17 -8 15 -10 -15 -12 -69 -4 -155 3 -162 15 -5 7 -8 6 -8 -4 0 -11 -19 -19
-67 -28 -91 -17 -150 -45 -165 -77 -16 -35 -4 -54 52 -82 24 -13 36 -23 26
-23 -24 0 -55 17 -88 48 -15 14 -30 23 -33 20 -11 -10 64 -67 102 -77 21 -6
58 -11 83 -11 25 0 81 -7 125 -15 44 -9 118 -15 164 -14 74 2 86 0 91 -16 5
-13 9 -15 14 -7 4 7 5 16 1 21 -3 5 21 15 52 21 91 18 137 31 151 43 9 7 16 7
24 -1 7 -7 19 -12 27 -12 13 1 12 4 -3 15 -14 11 -20 29 -21 64 -2 48 -2 49
40 69 l43 21 33 -25 c82 -60 93 -126 28 -160 -34 -17 -34 -17 -13 31 20 49 2
37 -21 -15 -10 -22 -25 -40 -34 -40 -9 -1 -47 -12 -86 -26 -38 -14 -55 -23
-37 -20 17 3 47 8 65 12 l32 5 -25 -14 c-49 -29 -175 -49 -280 -45 -55 1 -101
0 -103 -5 -1 -4 -72 4 -157 19 -112 19 -171 35 -212 55 -65 33 -109 40 -68 12
13 -9 49 -27 79 -40 l56 -24 -45 5 -45 5 60 -21 c53 -18 88 -21 287 -25 180
-3 241 -1 293 12 37 8 71 12 76 9 6 -3 15 -1 22 4 7 5 46 24 88 41 80 33 109
57 131 106 12 27 13 18 16 -97 1 -71 7 -128 12 -128 5 0 11 12 13 28 3 17 5
11 6 -19 1 -50 -23 -144 -41 -155 -8 -5 -9 -1 -4 12 14 36 18 74 9 74 -6 0
-16 -20 -23 -43 -23 -84 -39 -95 -195 -128 -272 -58 -429 -71 -578 -48 -40 6
-89 20 -111 31 -21 11 -35 15 -31 8 15 -24 -101 32 -138 67 -29 28 -36 32 -27
15 11 -22 10 -23 -10 -12 -38 20 -74 95 -100 208 -9 42 -9 67 0 118 8 40 17
63 24 61 6 -2 10 -11 10 -20 -1 -9 2 -14 7 -11 5 3 9 -4 9 -15 0 -12 5 -21 10
-21 6 0 10 4 10 10 0 5 7 7 15 4 9 -4 15 -19 15 -39 0 -19 5 -37 10 -40 6 -4
10 6 10 24 0 29 1 29 32 20 50 -14 48 -11 -14 21 -49 26 -58 35 -64 65 -6 32
-8 34 -20 18 -12 -17 -13 -16 -14 5 0 31 22 71 55 102 l28 25 -13 -24 c-11
-22 -8 -21 36 11 85 62 193 105 238 95 11 -3 39 1 61 8 39 14 222 13 349 -1z
m49 -96 c59 -9 74 -15 109 -49 25 -23 38 -43 32 -48 -10 -10 -96 -37 -136 -44
-34 -5 -36 6 -5 22 22 11 22 11 -3 7 -14 -2 -50 -11 -80 -20 -64 -18 -143 -20
-203 -6 -25 6 -66 7 -102 2 -117 -15 -251 30 -215 73 7 8 15 13 18 11 2 -3 22
4 44 15 52 27 287 58 393 52 44 -2 111 -9 148 -15z"/>
</g>
</svg>
