<?xml version="1.0" standalone="no"?>
<!DOCTYPE svg PUBLIC "-//W3C//DTD SVG 20010904//EN"
 "http://www.w3.org/TR/2001/REC-SVG-20010904/DTD/svg10.dtd">
<svg version="1.0" xmlns="http://www.w3.org/2000/svg"
 width="167.000000pt" height="244.000000pt" viewBox="0 0 167.000000 244.000000"
 preserveAspectRatio="xMidYMid meet">
<metadata>
Created by potrace 1.12, written by Peter Selinger 2001-2015
</metadata>
<g transform="translate(0.000000,244.000000) scale(0.100000,-0.100000)"
fill="#000000" stroke="none">
<path d="M569 2309 c-47 -5 -99 -14 -115 -20 l-29 -12 25 -6 c17 -5 21 -9 12
-15 -6 -4 -12 -27 -12 -50 0 -66 -40 -142 -119 -228 -93 -103 -106 -128 -95
-192 9 -63 9 -125 0 -334 -5 -103 -4 -194 3 -250 6 -48 13 -271 15 -497 3
-226 5 -411 5 -412 1 -2 19 -12 42 -23 73 -38 179 -52 404 -55 116 -1 224 -6
240 -10 26 -6 36 -1 71 32 69 65 185 153 273 206 45 28 78 53 73 55 -6 2 -20
-2 -31 -8 -25 -13 -27 -3 -4 22 15 16 15 21 3 28 -10 6 -28 -7 -66 -48 -29
-31 -55 -54 -59 -50 -4 4 14 27 39 53 45 44 56 65 36 65 -5 0 -16 -12 -24 -27
-19 -37 -225 -245 -238 -241 -7 3 -10 97 -9 263 l1 260 32 27 c18 15 45 32 61
39 15 6 27 15 27 20 0 14 -15 11 -64 -17 l-46 -26 2 248 3 249 87 42 c48 23
92 52 98 64 11 19 10 20 -12 14 -34 -11 -77 -34 -126 -67 -30 -21 -43 -25 -46
-16 -3 7 -7 90 -10 183 -3 94 -7 179 -9 190 -2 17 9 22 83 37 47 9 118 28 158
42 l72 25 0 -35 c0 -20 4 -33 10 -29 5 3 7 12 3 20 -3 9 0 21 6 29 6 7 9 20 6
27 -2 8 3 24 13 37 17 22 19 23 33 6 8 -10 9 -15 3 -11 -7 4 -15 0 -18 -9 -4
-9 -7 -154 -7 -323 0 -315 -15 -626 -45 -971 -4 -52 -4 -54 11 -35 9 11 20 27
26 35 7 12 10 13 17 2 7 -10 11 -6 17 15 4 15 10 315 14 666 6 630 6 638 -14
656 -59 53 -226 173 -232 167 -8 -8 38 -57 100 -104 33 -25 45 -41 42 -53 -4
-11 1 -22 12 -28 16 -9 16 -12 3 -21 -20 -13 -26 -13 -44 5 -8 8 -23 15 -33
15 -10 1 -36 7 -58 15 -22 8 -41 10 -43 5 -2 -5 -11 -7 -20 -4 -12 4 -10 0 6
-14 12 -11 41 -23 65 -27 124 -19 120 -22 -178 -102 -16 -4 -13 2 14 30 25 27
29 36 17 39 -12 2 -5 21 34 88 28 47 50 93 50 102 0 22 18 24 26 3 4 -8 11
-15 16 -15 6 0 3 11 -5 24 -12 17 -17 54 -19 123 l-3 98 -48 -3 c-39 -3 -46
-1 -41 12 5 14 -16 16 -197 15 -112 -1 -243 -5 -290 -10z m56 -19 c4 -6 61
-10 139 -10 73 0 181 -3 240 -7 l107 -6 -3 -74 -3 -73 -172 -2 c-130 -2 -173
-6 -173 -15 0 -10 -25 -13 -92 -13 -85 0 -91 -1 -76 -16 15 -15 28 -15 164 0
82 9 197 16 256 16 l108 0 -17 -35 c-20 -42 -32 -45 -26 -7 2 15 -5 2 -15 -28
-24 -72 -85 -166 -112 -173 -12 -3 -19 -10 -15 -16 4 -8 -33 -11 -117 -12 -98
-1 -113 -3 -73 -9 28 -5 72 -9 99 -9 27 -1 47 -3 45 -5 -13 -13 -130 -23 -179
-15 -120 19 -265 29 -295 20 -26 -8 -23 -9 30 -10 33 -1 101 -8 150 -16 121
-20 225 -19 313 4 l72 19 0 -146 c0 -81 3 -177 7 -214 l6 -68 -164 0 c-90 0
-209 7 -264 15 -98 14 -162 18 -138 9 7 -3 9 -12 6 -20 -3 -9 1 -14 13 -14 27
0 97 -21 91 -26 -3 -3 -27 -9 -54 -14 -43 -7 -44 -8 -13 -9 19 0 71 6 115 15
84 16 308 23 362 10 35 -8 55 -52 31 -67 -10 -6 -13 -52 -14 -191 -1 -153 0
-164 5 -68 7 138 21 114 21 -36 0 -145 -3 -149 -119 -163 -72 -9 -117 -9 -190
0 -92 12 -211 6 -211 -10 0 -7 -180 6 -188 14 -8 8 -6 177 7 540 7 193 10 376
8 408 -5 50 -3 57 13 57 10 0 20 -5 22 -10 2 -7 19 -5 47 5 24 8 80 15 125 16
l81 1 -75 13 c-41 6 -112 15 -156 18 -77 6 -82 5 -93 -16 -11 -21 -11 -21 -5
3 10 42 38 73 79 87 45 15 77 43 107 90 27 45 57 61 73 40 10 -15 14 -15 31
-2 18 14 18 14 -8 15 -20 0 -26 4 -22 15 4 8 1 15 -6 15 -8 0 -10 8 -7 22 4
13 0 29 -8 38 -9 10 -12 29 -8 58 5 41 7 42 42 42 21 0 46 7 57 15 23 17 31
18 39 5z m-158 -142 c-3 -8 -6 -5 -6 6 -1 11 2 17 5 13 3 -3 4 -12 1 -19z m3
-62 c0 -3 -4 -8 -10 -11 -5 -3 -10 -1 -10 4 0 6 5 11 10 11 6 0 10 -2 10 -4z
m-188 -558 c-3 -114 -7 -147 -14 -131 -7 14 -8 73 -3 170 10 189 21 162 17
-39z m1108 -193 c-8 -33 -9 -25 -5 45 3 47 6 128 7 180 2 74 3 64 5 -45 2 -78
-1 -159 -7 -180z m-9 -532 c-1 -106 -5 -141 -16 -152 -8 -8 -16 -13 -18 -10
-5 7 25 310 31 305 2 -3 4 -67 3 -143z m-865 -24 c163 -11 360 -3 432 17 l22
6 0 -253 c0 -262 -4 -306 -24 -290 -6 5 -27 11 -46 13 -19 3 -75 17 -125 32
-88 27 -92 28 -200 16 -75 -8 -129 -8 -170 -2 -33 6 -62 8 -65 5 -9 -9 26 -23
60 -23 32 -1 33 -2 11 -11 -35 -14 -98 -14 -116 1 -13 11 -15 49 -15 262 l0
250 33 -5 c17 -3 109 -11 203 -18z m122 14 c-21 -2 -57 -2 -80 0 -24 2 -7 4
37 4 44 0 63 -2 43 -4z m121 -499 c19 -8 32 -16 30 -19 -3 -2 -61 1 -129 8
-103 10 -117 13 -80 18 77 10 144 7 179 -7z m-75 -36 c100 -9 124 -13 105 -21
-31 -12 -216 -1 -294 17 l-60 14 60 1 c33 1 118 -4 189 -11z"/>
<path d="M469 2023 c-13 -16 -12 -17 4 -4 9 7 17 15 17 17 0 8 -8 3 -21 -13z"/>
<path d="M628 1823 c12 -2 30 -2 40 0 9 3 -1 5 -23 4 -22 0 -30 -2 -17 -4z"/>
</g>
</svg>
