<?xml version="1.0" standalone="no"?>
<!DOCTYPE svg PUBLIC "-//W3C//DTD SVG 20010904//EN"
 "http://www.w3.org/TR/2001/REC-SVG-20010904/DTD/svg10.dtd">
<svg version="1.0" xmlns="http://www.w3.org/2000/svg"
 width="334.000000pt" height="212.000000pt" viewBox="0 0 334.000000 212.000000"
 preserveAspectRatio="xMidYMid meet">
<metadata>
Created by potrace 1.13, written by Peter Selinger 2001-2015
</metadata>
<g transform="translate(0.000000,212.000000) scale(0.100000,-0.100000)"
fill="#000000" stroke="none">
<path d="M2212 2000 c-18 -15 -34 -18 -83 -14 -33 2 -66 5 -72 7 -7 1 -13 -13
-15 -33 -2 -19 -8 -41 -14 -47 -7 -9 -7 -13 1 -13 7 0 8 -8 1 -25 -7 -18 -6
-25 2 -25 6 0 8 -3 4 -7 -4 -5 -13 -8 -19 -8 -6 0 -20 -17 -31 -37 -10 -20
-23 -36 -29 -35 -5 1 -10 -8 -12 -20 -2 -29 20 -30 35 -3 6 11 15 20 21 20 6
0 7 -4 4 -10 -3 -5 4 -10 16 -10 18 0 19 2 9 15 -10 12 -10 15 0 15 10 0 10 3
0 15 -6 8 -10 20 -7 27 4 8 6 7 6 -4 1 -22 31 -24 31 -3 0 8 9 15 19 15 11 0
22 4 25 9 3 5 15 11 26 14 12 3 18 1 14 -5 -4 -7 5 -8 25 -3 17 4 31 3 30 -2
-1 -4 -1 -15 0 -23 1 -13 2 -13 11 0 6 10 4 20 -6 31 -13 15 -12 17 11 23 29
7 49 0 40 -15 -4 -5 0 -9 9 -9 17 0 15 28 -4 40 -8 5 -46 7 -84 4 -56 -3 -65
-2 -41 6 17 5 38 7 47 4 10 -3 27 0 38 6 16 8 25 8 35 0 9 -7 15 -8 20 0 6 10
5 11 -17 14 -21 2 -20 26 1 26 12 0 22 5 22 10 1 6 2 16 3 23 4 21 -14 47 -32
47 -9 -1 -27 -9 -40 -20z"/>
<path d="M1637 1760 c-13 -11 -29 -15 -35 -11 -21 13 -55 5 -58 -12 -1 -9 2
-17 7 -17 6 0 7 -4 4 -10 -3 -5 1 -10 10 -10 9 0 13 -4 10 -10 -3 -5 1 -10 10
-10 14 0 13 4 -4 27 -25 31 -22 36 12 28 21 -6 24 -11 20 -37 -3 -19 0 -34 9
-39 10 -7 11 -12 1 -29 -7 -11 -13 -26 -13 -33 0 -12 -27 -46 -93 -115 -21
-22 -22 -28 -19 -248 2 -135 0 -224 -6 -220 -5 3 -17 -1 -28 -8 -10 -8 -23
-12 -29 -10 -6 3 -22 -7 -35 -21 l-23 -25 22 0 c13 0 20 -4 16 -11 -4 -6 -9
-8 -12 -5 -3 3 -15 0 -26 -5 -12 -7 -16 -14 -9 -18 17 -10 -2 -33 -22 -25 -13
5 -14 9 -6 14 7 4 9 13 5 19 -5 9 -10 9 -20 1 -13 -11 -29 2 -30 24 0 5 -8 10
-18 12 -21 3 -61 -32 -52 -46 7 -11 -14 -25 -41 -25 -11 0 -32 -8 -46 -17 -13
-9 -34 -18 -47 -20 -12 -1 -20 -6 -19 -9 2 -3 -3 -13 -10 -22 -13 -15 -9 -16
36 -10 33 4 52 2 57 -7 5 -8 0 -11 -16 -8 -15 2 -23 -2 -22 -9 4 -19 -14 -16
-21 3 -3 8 -11 12 -17 8 -8 -4 -7 -9 2 -15 8 -5 9 -9 3 -9 -6 0 -19 9 -29 20
-10 11 -20 18 -23 15 -3 -3 -11 0 -19 6 -10 9 -17 8 -30 -2 -16 -13 -17 -12
-4 4 11 13 22 16 45 11 24 -5 28 -3 19 6 -6 7 -25 13 -41 15 -36 2 -99 44 -82
55 8 5 6 10 -4 20 -9 7 -14 16 -11 20 3 5 1 11 -4 15 -6 3 -15 -4 -21 -15 -8
-15 -8 -20 2 -20 9 0 9 -3 0 -12 -9 -9 -20 -7 -48 8 -45 24 -49 30 -24 37 11
3 18 1 14 -4 -3 -5 1 -9 10 -9 8 0 13 8 11 18 -2 12 -10 16 -31 14 -16 -2 -35
-8 -42 -14 -7 -6 -12 -7 -10 -2 2 5 0 10 -4 12 -5 1 -7 0 -5 -1 1 -2 -4 -11
-12 -20 -12 -15 -11 -17 4 -17 17 0 17 -1 2 -18 -9 -10 -15 -28 -12 -41 4 -22
3 -22 -13 -7 -15 12 -21 13 -31 3 -10 -9 -12 -9 -9 1 7 30 -107 62 -152 43
-14 -6 -48 -13 -76 -16 -17 -1 -41 -8 -53 -14 -11 -7 -21 -9 -21 -6 0 3 -14
-2 -30 -12 -25 -15 -34 -15 -51 -5 -20 13 -44 8 -34 -8 3 -5 0 -12 -6 -15 -5
-4 -8 -14 -4 -22 4 -13 3 -14 -9 -4 -10 8 -16 9 -21 1 -3 -5 -1 -10 6 -10 7 0
9 -3 6 -7 -4 -3 -15 2 -26 11 -12 11 -21 14 -26 7 -3 -6 1 -11 9 -11 10 0 13
-6 9 -17 -5 -12 -2 -15 10 -10 11 4 14 2 10 -9 -3 -7 0 -14 6 -14 9 0 9 -5 1
-20 -8 -16 -8 -20 4 -20 19 0 25 -19 32 -108 4 -43 10 -79 15 -80 5 -2 6 -9 2
-15 -17 -27 -10 -36 32 -43 41 -6 48 -15 32 -40 -9 -16 24 -24 96 -24 32 0 56
-4 53 -9 -3 -5 4 -11 16 -14 21 -6 21 -7 3 -27 -17 -18 -17 -20 -1 -20 9 0 14
5 11 10 -3 6 1 10 10 10 10 0 14 5 9 13 -6 10 -4 10 7 0 7 -8 39 -13 71 -13
55 0 58 -1 48 -19 -15 -30 -14 -31 36 -31 27 0 43 -4 39 -10 -3 -5 1 -10 10
-10 9 0 13 5 10 10 -4 6 8 4 27 -3 18 -8 32 -20 30 -26 -1 -7 6 -12 15 -11 32
4 44 0 38 -10 -4 -6 10 -10 34 -10 43 0 113 -28 105 -42 -3 -4 2 -8 11 -8 9 0
13 5 10 10 -3 6 -2 10 3 10 16 0 21 -13 12 -30 -9 -16 -3 -18 73 -18 46 -1 83
-5 85 -11 2 -6 22 -8 50 -4 26 3 44 3 40 -1 -3 -4 -14 -9 -24 -10 -33 -5 -27
-26 7 -26 30 0 31 -1 16 -17 -15 -17 -12 -18 51 -22 123 -6 216 -6 297 1 44 4
86 7 93 8 7 0 10 5 7 10 -4 6 7 10 26 10 27 0 30 2 19 15 -10 12 -16 13 -29 3
-9 -7 -3 1 13 18 22 24 35 29 61 26 27 -3 32 -8 29 -28 -2 -21 2 -24 31 -24
26 0 33 4 30 18 -2 9 -4 19 -4 21 -1 2 -11 -4 -23 -15 -12 -10 -18 -13 -14 -6
11 19 -20 50 -48 47 -17 -2 -26 3 -30 18 -6 22 -6 22 -25 -3 -11 -14 -26 -25
-33 -25 -7 -1 -11 -7 -10 -15 2 -8 0 -11 -5 -7 -4 5 -9 13 -9 18 -1 5 -2 11
-3 14 0 3 -11 1 -22 -6 -18 -9 -19 -13 -8 -21 11 -8 10 -9 -3 -5 -9 3 -22 -1
-29 -9 -7 -9 -21 -13 -31 -11 -10 3 -21 1 -24 -4 -3 -5 0 -9 5 -9 6 0 11 -5
11 -10 0 -18 -227 -11 -234 6 -3 8 -1 14 5 14 6 0 7 4 4 10 -3 5 3 10 15 10
12 0 18 5 15 10 -4 6 -11 8 -16 4 -5 -3 -15 -1 -22 5 -8 6 -18 6 -27 1 -18
-12 -41 -13 -38 -2 3 6 -7 13 -14 11 -28 -8 -48 -6 -58 6 -11 13 -8 15 16 15
16 0 39 3 52 6 16 5 22 2 22 -11 0 -13 6 -16 23 -11 12 3 25 6 29 6 4 0 5 7 2
15 -4 8 -1 15 6 15 7 0 3 12 -10 29 -14 21 -27 29 -42 26 -11 -3 -26 -1 -32 3
-17 10 -35 11 -42 1 -3 -5 2 -9 10 -9 8 0 17 -4 21 -9 3 -6 -4 -9 -16 -8 -28
2 -36 20 -41 97 -4 61 -3 65 16 64 12 -1 29 -5 39 -9 21 -9 50 1 42 15 -3 5
-1 10 5 10 6 0 8 4 5 10 -3 5 3 15 14 21 10 7 17 18 14 24 -5 14 24 21 122 31
47 5 65 4 65 -5 0 -7 -4 -10 -9 -6 -5 3 -12 1 -15 -4 -4 -5 -2 -12 4 -16 6 -4
8 -11 5 -16 -4 -5 1 -9 9 -9 9 0 15 5 13 12 -3 16 61 28 93 16 21 -7 27 -15
26 -33 0 -14 -7 -27 -13 -30 -28 -10 -12 -27 22 -23 24 3 35 0 35 -9 0 -7 7
-13 15 -13 16 0 20 20 8 36 -5 5 0 1 10 -9 12 -14 17 -36 17 -84 0 -59 -2 -64
-19 -58 -11 3 -22 1 -26 -5 -4 -6 4 -10 19 -10 14 0 28 -5 31 -10 4 -7 13 -7
26 0 11 6 17 15 14 21 -4 5 1 9 9 9 9 0 15 -5 13 -11 -1 -6 11 -13 26 -16 19
-2 26 0 22 7 -3 6 -10 8 -15 5 -5 -3 -11 -1 -15 5 -4 6 8 10 29 10 20 0 36 5
36 10 0 6 5 10 12 10 6 0 4 -7 -5 -18 -21 -23 -22 -42 -2 -42 8 0 15 5 15 11
0 8 14 10 44 6 l45 -6 -4 38 c-3 38 -2 39 31 43 47 5 105 -2 98 -13 -3 -5 2
-9 11 -9 9 0 13 5 10 10 -4 6 14 10 47 10 60 0 76 7 72 33 -1 9 0 17 3 17 8 0
35 -30 26 -30 -4 0 -1 -5 7 -10 8 -5 30 -7 49 -3 24 4 32 2 27 -6 -4 -6 -3
-11 1 -11 5 0 9 -8 9 -17 1 -10 5 -27 9 -38 8 -20 8 -20 -13 -2 -13 12 -26 16
-34 11 -7 -5 -22 -9 -33 -9 -11 0 -20 -7 -20 -15 0 -8 -4 -21 -8 -27 -10 -17
34 -18 50 -2 6 6 26 13 43 15 29 3 31 2 19 -12 -22 -27 -54 -33 -197 -40 -75
-4 -144 -8 -152 -9 -8 -1 -20 5 -27 14 -10 15 -12 14 -18 -1 -8 -20 -54 -25
-72 -7 -14 14 -71 20 -78 8 -4 -5 5 -9 19 -9 19 0 24 -4 21 -20 -3 -18 0 -19
43 -13 46 6 47 6 29 -14 -9 -11 -14 -24 -10 -28 5 -5 1 -4 -9 3 -10 8 -19 9
-22 3 -8 -12 50 -25 66 -14 7 4 22 6 33 4 16 -2 17 -1 6 13 -7 9 -17 14 -21
11 -4 -3 -10 2 -14 10 -4 12 3 15 30 15 21 0 33 -4 29 -10 -3 -5 -1 -10 5 -10
6 0 8 -4 5 -10 -3 -6 4 -10 16 -10 21 0 22 1 4 20 -18 20 -17 20 29 20 29 0
45 -4 41 -10 -3 -6 -1 -10 5 -10 6 0 8 -4 5 -10 -3 -5 1 -10 10 -10 13 0 14 4
5 20 -8 15 -8 20 2 20 7 0 24 3 37 7 17 4 22 3 17 -5 -4 -7 -1 -12 9 -12 9 0
13 5 10 10 -4 6 6 10 21 10 27 0 27 -1 8 -15 -12 -9 -14 -14 -6 -15 7 0 11 -4
7 -9 -3 -5 4 -13 16 -16 25 -8 39 2 15 11 -23 9 -20 24 5 24 11 0 17 5 14 10
-4 6 7 10 26 10 31 0 32 -1 13 -16 -18 -15 -18 -15 6 -10 14 3 29 6 34 6 5 0
1 9 -8 19 -13 14 -14 21 -5 27 8 5 10 3 4 -6 -6 -9 0 -10 25 -5 30 7 31 6 21
-13 -6 -12 -16 -24 -21 -27 -16 -10 15 -35 42 -35 20 1 21 2 8 13 -17 14 -23
47 -7 47 5 0 2 9 -7 19 -17 18 -16 19 12 26 21 4 29 11 27 23 -1 10 -9 16 -19
14 -9 -2 -16 2 -16 8 0 14 22 12 44 -5 11 -8 28 -15 39 -15 10 0 15 -5 12 -10
-3 -6 -1 -10 5 -10 6 0 9 -4 6 -9 -8 -12 31 -19 107 -21 41 -1 57 2 52 10 -4
6 -13 9 -20 6 -7 -2 -30 2 -51 9 l-39 14 66 1 c44 0 70 -5 78 -13 6 -8 8 -16
5 -20 -3 -3 14 -4 38 -2 59 3 60 4 54 14 -3 5 -14 7 -24 4 -12 -3 -19 1 -19
11 0 9 7 16 14 16 8 0 11 5 8 10 -3 6 2 10 12 11 10 1 25 2 33 3 8 2 23 3 33
4 10 1 15 7 12 12 -3 6 -1 10 5 10 6 0 8 5 5 10 -4 6 -10 8 -14 6 -4 -3 -13
-1 -21 5 -12 7 -11 9 4 9 11 0 16 3 13 7 -4 3 2 13 13 20 11 8 18 19 15 24 -4
5 3 9 14 9 13 0 18 6 17 18 -4 24 24 42 53 35 17 -4 22 -2 17 6 -4 6 -12 9
-17 6 -5 -4 -6 7 -3 24 5 23 2 32 -14 40 -14 7 -23 8 -27 1 -3 -5 -1 -10 4
-10 23 0 9 -38 -28 -74 -35 -34 -39 -36 -44 -17 -3 11 -2 20 2 19 18 -2 21 4
11 22 -8 14 -8 20 0 20 6 0 9 4 5 9 -3 6 -14 8 -26 6 -14 -3 -19 1 -17 13 3
15 -17 23 -34 15 -5 -2 1 -22 12 -43 20 -40 27 -67 11 -41 -11 17 -39 23 -47
10 -3 -6 -1 -16 5 -23 6 -7 8 -16 4 -19 -3 -4 -1 -7 6 -7 7 0 9 -5 5 -12 -5
-8 0 -9 14 -6 29 8 28 2 -4 -27 -15 -14 -21 -25 -14 -25 10 0 10 -3 1 -14 -9
-11 -9 -15 1 -19 7 -3 4 -5 -7 -5 -11 0 -39 -6 -61 -15 -28 -10 -45 -12 -52
-5 -6 6 -12 6 -16 -1 -4 -6 -26 -11 -50 -11 -36 0 -45 4 -54 25 -8 17 -8 25
-1 25 6 0 7 5 4 10 -3 6 -1 10 6 10 9 0 8 4 -1 15 -8 9 -18 12 -29 6 -16 -8
-61 9 -64 25 -1 5 -6 8 -12 6 -5 -1 -3 3 5 10 8 7 15 24 15 38 -1 14 4 28 9
32 7 5 7 11 -2 20 -10 10 -14 9 -18 -8 -4 -16 -12 -20 -31 -18 -35 4 -47 18
-35 40 10 20 -1 64 -17 64 -5 0 -11 7 -15 15 -4 12 -2 13 15 2 15 -9 21 -9 27
-1 4 7 18 14 32 16 14 2 24 9 23 15 -2 7 4 10 12 7 8 -4 12 -10 9 -15 -3 -5 2
-9 11 -9 12 0 14 4 5 19 -13 25 -13 31 2 31 6 0 9 -3 5 -6 -8 -8 34 -54 50
-54 8 0 12 3 10 7 -3 5 13 9 35 10 35 2 38 1 28 -12 -9 -11 -9 -15 -1 -15 7 0
9 -4 6 -10 -3 -5 -1 -10 6 -10 8 0 7 -5 -2 -17 -13 -15 -11 -16 23 -10 21 3
37 3 35 -1 -1 -4 3 -8 8 -9 6 -2 10 5 10 15 0 9 4 22 8 29 4 6 3 14 -3 18 -6
4 -8 11 -4 16 3 5 1 16 -5 23 -9 11 -8 18 3 29 21 21 7 30 -20 13 -19 -13 -24
-13 -40 0 -11 9 -14 13 -7 9 17 -8 64 5 57 16 -3 5 -9 7 -14 4 -5 -3 -18 -1
-28 4 -11 6 -23 7 -26 3 -4 -4 -22 -8 -40 -8 -34 -2 -34 -1 -27 59 1 5 16 8
34 7 49 -3 59 -1 52 10 -3 6 1 10 9 10 9 0 13 6 10 14 -4 11 0 13 16 9 19 -5
20 -7 5 -23 -14 -16 -14 -18 0 -24 12 -4 13 -10 6 -24 -7 -13 -7 -22 1 -30 16
-16 72 -16 62 -1 -5 8 -1 8 14 0 28 -15 85 -15 76 0 -4 8 1 9 17 4 29 -9 42
-26 29 -39 -15 -15 -12 -26 5 -26 8 0 15 5 15 10 0 6 6 10 14 10 9 0 12 -7 9
-21 -3 -11 -11 -18 -19 -15 -7 3 -16 1 -19 -4 -4 -6 8 -10 25 -10 28 0 30 -2
20 -20 -7 -13 -7 -20 -1 -20 6 0 8 -6 5 -13 -3 -8 6 -18 21 -25 32 -15 48 -15
40 -2 -3 6 0 13 8 16 12 4 15 17 8 42 -1 1 -10 -2 -20 -8 -11 -5 -22 -6 -25
-2 -3 5 11 16 30 26 24 11 34 21 30 31 -3 8 -1 15 4 15 6 0 10 7 10 15 0 8 7
15 16 15 8 0 12 5 9 10 -4 6 -10 8 -14 6 -4 -3 -12 4 -19 15 -10 16 -10 21 3
25 8 3 12 10 9 15 -3 5 -8 7 -12 5 -4 -2 -6 40 -4 95 2 54 8 99 13 99 15 0 10
37 -8 51 -14 12 -43 68 -43 84 0 3 7 5 16 5 14 0 14 3 3 16 -10 12 -10 17 0
23 7 5 12 12 11 17 -2 16 -43 54 -51 48 -12 -7 -49 18 -49 33 0 7 5 13 11 13
19 0 3 23 -17 25 -23 2 -60 25 -63 40 -1 6 -9 9 -16 7 -8 -1 -26 5 -40 14 -22
14 -28 13 -27 -6 0 -5 -153 -5 -173 0 -5 1 -14 2 -18 1 -4 -1 -16 3 -26 9 -27
14 -33 0 -9 -20 15 -12 18 -19 9 -24 -6 -4 -10 -4 -9 1 2 4 -2 9 -7 11 -6 1
-10 -8 -10 -20 0 -16 -6 -22 -17 -20 -9 1 -19 -2 -23 -8 -4 -6 6 -10 24 -10
33 0 39 -8 19 -28 -7 -7 -8 -12 -4 -12 5 0 3 -7 -4 -15 -10 -12 -10 -15 4 -15
9 0 16 -5 16 -11 0 -5 -4 -8 -9 -4 -5 3 -12 1 -16 -5 -9 -14 -35 -12 -32 3 1
6 -5 10 -13 8 -8 -2 -26 -4 -40 -3 -14 0 -44 -6 -68 -15 -45 -17 -52 -15 -56
14 -2 10 -11 18 -22 18 -16 0 -20 9 -24 63 -5 64 -23 89 -28 40 -4 -32 -14
-35 -32 -13 -7 9 -19 14 -27 11 -8 -3 -11 -1 -8 4 3 6 10 10 15 10 5 0 21 5
36 10 25 10 26 12 10 29 -9 9 -13 21 -9 24 12 12 21 7 19 -10 0 -10 6 -19 15
-21 13 -2 15 9 16 65 0 37 2 75 4 83 2 8 -3 15 -11 15 -8 0 -19 6 -23 13 -5 7
-12 10 -18 7 -15 -10 -10 -35 6 -35 8 0 15 -3 16 -7 0 -5 2 -16 4 -25 2 -9 -4
-19 -13 -23 -14 -5 -14 -7 -2 -15 12 -7 12 -12 2 -22 -9 -9 -15 -8 -25 6 -12
16 -16 16 -87 0 -41 -10 -92 -17 -112 -16 -20 1 -40 -3 -43 -8 -8 -13 87 -13
135 -1 19 5 49 11 66 14 28 5 31 4 28 -19 -1 -13 2 -24 7 -24 4 0 6 -7 3 -15
-5 -12 -10 -12 -27 -3 -12 7 -25 12 -29 13 -3 0 -10 3 -14 8 -4 4 7 7 25 7 18
0 30 4 27 9 -10 16 -56 9 -67 -10 -7 -13 -6 -19 1 -19 6 0 9 -4 6 -9 -4 -5 0
-12 6 -14 7 -3 1 -6 -14 -6 -35 -1 -48 -21 -13 -21 16 0 24 -4 20 -11 -4 -6
-13 -8 -21 -5 -7 3 -16 1 -19 -4 -3 -5 5 -10 17 -12 31 -4 32 -43 1 -43 -11 0
-25 -3 -29 -7 -4 -5 7 -8 25 -8 22 0 30 -4 25 -12 -5 -8 0 -9 17 -5 13 4 27 7
31 7 4 0 5 7 2 15 -4 8 -1 15 5 15 6 0 10 -5 8 -12 -1 -6 6 -14 17 -16 11 -2
16 0 12 7 -4 6 -2 11 3 11 6 0 11 -4 11 -10 0 -13 -38 -32 -50 -25 -5 3 -12 0
-15 -6 -4 -5 -13 -8 -20 -5 -23 8 -26 -8 -4 -19 19 -11 17 -12 -16 -13 -21 -1
-46 -4 -56 -7 -12 -4 -23 1 -31 14 -7 12 -17 21 -22 21 -5 0 -6 -3 -3 -7 4 -3
-8 -15 -26 -26 -34 -22 -23 -36 14 -17 15 8 19 9 15 1 -4 -6 -1 -14 7 -17 18
-7 19 -54 1 -54 -7 0 -24 4 -38 10 -24 9 -47 -3 -26 -13 6 -3 5 -4 -2 -3 -7 2
-13 9 -13 16 0 17 -21 24 -30 10 -5 -8 -11 -8 -20 0 -9 7 -16 6 -25 -5 -10
-12 -9 -15 5 -15 17 0 17 -1 0 -20 -17 -19 -19 -19 -31 -2 -10 14 -16 15 -31
5 -10 -6 -17 -16 -15 -23 1 -6 -2 -9 -7 -6 -5 4 -9 19 -9 35 1 24 4 27 22 23
20 -5 20 -4 -3 21 l-23 26 22 -6 c20 -5 21 -4 11 16 -7 12 -16 19 -22 16 -5
-4 -9 -1 -9 4 0 6 10 11 23 11 l22 0 -21 18 c-11 9 -19 23 -18 30 1 6 2 17 3
22 0 6 8 10 16 10 20 0 19 17 -2 29 -16 9 -16 10 -1 11 10 0 15 7 13 18 -1 9
-8 16 -14 14 -6 -1 -11 2 -11 8 0 5 12 10 28 10 23 1 25 3 12 13 -8 7 -17 19
-18 27 -10 41 -10 50 -1 50 5 0 7 10 5 23 -2 12 -10 21 -17 19 -8 -1 -5 5 5
13 17 13 15 19 -5 17 -3 -1 -6 6 -6 14 0 8 7 14 15 14 12 0 12 3 2 15 -10 12
-10 15 1 15 17 0 -2 20 -22 24 -8 1 -22 7 -33 12 -17 11 -17 11 3 17 12 3 19
1 15 -4 -3 -5 7 -9 21 -9 15 0 24 4 20 10 -4 6 -10 8 -15 5 -4 -3 -11 2 -14
11 -4 9 -9 14 -13 11 -3 -4 -12 1 -19 11 -13 16 -14 15 -20 -6 l-7 -23 -22 21
c-15 14 -25 18 -30 11 -3 -6 2 -11 12 -11 17 -1 17 -1 -1 -11 -14 -9 -22 -7
-35 5 -13 14 -14 18 -2 25 9 6 10 11 2 15 -5 4 -20 -3 -31 -14 -25 -25 -66
-35 -75 -20 -5 8 -11 8 -19 1 -9 -8 -13 -7 -13 4 0 8 6 15 14 15 7 0 13 9 13
19 0 11 13 28 29 37 17 10 28 21 25 26 -3 4 0 8 5 8 6 0 11 -7 11 -15 0 -8 7
-15 16 -15 8 0 12 -5 8 -11 -4 -7 -9 -8 -17 0 -7 7 -19 5 -39 -5 -40 -20 -33
-24 27 -16 38 5 52 12 60 30 5 12 13 22 18 22 4 0 6 4 2 10 -3 5 -13 7 -23 4
-14 -5 -15 -4 -2 5 19 14 93 15 85 1 -3 -5 -2 -10 4 -10 6 0 8 -6 6 -12 -13
-39 -13 -68 1 -68 9 0 12 5 8 12 -4 7 -3 8 4 4 6 -4 23 -4 38 0 26 7 26 8 9
20 -11 8 -13 14 -6 14 7 0 9 5 6 10 -3 6 1 10 10 10 9 0 13 -4 10 -10 -3 -5 1
-10 10 -10 9 0 13 -4 10 -10 -3 -5 2 -10 12 -10 15 0 15 -2 4 -9 -20 -13 -23
-41 -5 -41 9 0 12 5 9 10 -3 6 1 13 9 16 13 5 11 12 -14 40 -16 19 -27 40 -24
48 12 31 -50 43 -70 14 -12 -16 -14 -17 -19 -4 -4 9 -12 13 -20 10 -7 -2 -21
4 -31 15 -10 11 -22 18 -27 16 -4 -3 -10 -1 -14 5 -3 6 4 10 16 10 21 0 22 1
4 20 -10 11 -20 18 -23 15 -3 -3 -10 -1 -16 4 -6 5 -37 11 -68 14 -46 4 -63 1
-81 -13z m70 -256 c13 -4 20 -11 16 -20 -4 -10 3 -14 21 -14 16 0 26 6 26 15
0 10 10 15 33 15 39 0 60 -12 63 -38 3 -15 -2 -19 -24 -18 -20 1 -27 -4 -26
-17 2 -17 0 -17 -15 -3 -10 9 -20 14 -23 10 -9 -8 3 -44 14 -44 6 0 8 -7 4
-15 -4 -11 5 -16 34 -21 22 -4 37 -10 34 -15 -3 -5 2 -9 11 -9 9 0 13 5 10 10
-3 6 -1 10 4 10 7 0 11 -22 11 -52 0 -69 -9 -101 -26 -94 -7 3 -16 1 -19 -4
-3 -5 4 -11 15 -15 18 -6 20 -15 20 -76 0 -41 -4 -68 -9 -64 -5 3 -12 1 -16
-5 -3 -5 1 -10 9 -10 12 0 16 -11 16 -46 0 -25 -4 -43 -9 -39 -5 3 -12 1 -16
-5 -3 -5 1 -10 9 -10 9 0 16 -9 16 -21 0 -11 -4 -18 -9 -14 -5 3 -12 1 -16 -5
-3 -5 1 -10 9 -10 9 0 16 -4 16 -9 0 -5 -8 -7 -19 -4 -10 3 -22 0 -25 -6 -4
-6 -1 -11 7 -11 7 0 14 -6 14 -14 0 -10 -9 -13 -32 -9 -19 3 -35 0 -39 -6 -4
-6 0 -11 10 -11 27 0 7 -13 -26 -17 -16 -1 -30 2 -30 7 0 6 7 10 16 10 8 0 12
4 9 10 -3 6 1 10 10 10 9 0 14 4 10 9 -3 5 5 11 17 13 22 3 21 4 -6 22 -28 18
-30 18 -43 0 -7 -10 -13 -15 -13 -11 0 4 -11 0 -25 -9 -14 -9 -23 -20 -20 -24
3 -5 1 -11 -5 -15 -6 -4 -8 -11 -5 -16 8 -12 1 -11 -29 2 -14 7 -23 15 -21 20
7 10 -45 50 -56 43 -5 -3 -6 -10 -3 -16 4 -6 1 -9 -7 -6 -7 2 -14 17 -15 33 0
15 -9 34 -19 42 -17 12 -18 13 -1 13 9 0 15 4 11 9 -3 5 -1 12 5 16 7 4 7 13
0 26 -6 11 -15 17 -21 14 -5 -4 -9 1 -9 10 0 8 7 18 15 21 8 4 12 10 9 15 -3
5 -10 7 -15 4 -5 -4 -9 10 -9 29 0 30 4 36 21 36 12 0 17 4 14 11 -4 6 -13 8
-21 5 -10 -4 -14 3 -14 24 0 21 5 30 16 30 8 0 12 5 9 10 -4 6 -10 8 -14 5 -7
-4 -16 40 -24 125 -1 14 3 31 10 38 17 18 28 15 12 -4 -12 -15 -10 -16 21 -8
19 5 51 9 70 10 64 2 71 4 65 14 -3 6 1 10 10 10 9 0 13 5 10 10 -4 6 -10 8
-15 5 -5 -3 -12 0 -15 6 -4 5 -14 8 -22 5 -8 -3 -23 -2 -33 4 -13 7 -21 6 -30
-5 -11 -13 -8 -15 18 -15 38 0 64 -9 56 -21 -3 -5 -13 -5 -22 -1 -15 7 -37 8
-44 3 -2 -2 -13 -4 -25 -7 -20 -3 -22 0 -19 29 4 33 -10 61 -25 51 -5 -3 -9 0
-9 6 0 6 10 8 26 4 20 -5 25 -3 22 6 -12 37 62 62 129 44z m1268 -494 c-3 -5
-2 -10 4 -10 7 0 7 -8 1 -25 -8 -20 -6 -25 6 -25 8 0 12 5 9 10 -3 6 -1 10 4
10 6 0 10 10 8 22 -1 17 4 24 22 26 13 2 27 -2 32 -10 7 -10 12 -11 29 0 26
16 31 15 24 -3 -4 -8 -1 -15 5 -15 6 0 8 -6 5 -14 -3 -8 -16 -13 -30 -11 -13
1 -27 -2 -30 -7 -4 -6 8 -8 29 -7 19 2 41 -2 49 -9 8 -6 19 -8 23 -4 10 9 -3
-15 -27 -50 -12 -17 -15 -28 -8 -28 8 0 11 -23 10 -72 -1 -40 -1 -75 0 -78 1
-3 3 -27 5 -55 3 -37 1 -45 -6 -32 -8 14 -14 15 -30 6 -24 -12 -62 -3 -41 10
10 6 10 11 -3 21 -19 16 -19 30 1 30 8 0 12 5 9 10 -4 6 -12 7 -18 3 -7 -4
-18 -8 -26 -10 -7 -1 -19 -7 -25 -14 -8 -9 -6 -10 12 -6 12 3 20 1 16 -4 -9
-15 -33 -10 -43 10 -9 16 -6 20 15 25 13 4 23 10 20 15 -6 9 -36 8 -52 -2 -13
-8 -47 -2 -71 12 -17 10 -17 10 1 11 13 0 16 3 9 13 -6 6 -13 34 -16 61 l-5
48 36 -6 c47 -7 54 -16 37 -49 -10 -20 -11 -27 -2 -27 24 0 40 18 35 38 -3 11
-2 26 3 33 11 18 0 32 -15 20 -17 -14 -44 -8 -60 15 -14 18 -15 18 -22 1 -5
-14 -9 -15 -14 -6 -12 18 -1 39 20 39 18 0 22 33 7 58 -5 8 -2 12 9 12 13 0
14 3 4 15 -11 13 -8 15 19 15 19 0 30 -4 26 -10z m-599 -67 c13 2 21 0 18 -4
-3 -5 4 -9 15 -9 12 0 23 0 26 0 3 0 5 3 5 8 0 4 -4 7 -9 7 -5 0 -13 4 -18 9
-4 5 7 5 26 1 23 -5 31 -4 27 4 -5 7 2 11 18 11 19 0 24 -4 21 -20 -2 -11 -7
-24 -10 -30 -3 -5 -1 -18 4 -29 16 -30 -10 -43 -84 -43 -59 0 -96 12 -93 30 2
19 -4 23 -17 12 -9 -7 -15 -8 -15 -2 0 5 8 13 17 16 12 5 14 9 5 18 -9 9 -17
6 -35 -10 -13 -12 -28 -22 -34 -22 -6 0 -16 -7 -23 -15 -7 -8 -17 -12 -22 -9
-5 3 -7 9 -4 12 3 3 0 12 -6 20 -20 23 -18 42 4 42 10 0 27 4 37 9 12 7 32 5
61 -5 50 -17 78 -13 37 6 -19 9 -24 16 -15 21 7 5 18 0 26 -13 10 -13 22 -18
38 -15z m-232 -49 c9 -3 14 -10 11 -15 -3 -4 13 -13 35 -20 30 -9 37 -15 30
-24 -8 -10 2 -16 40 -25 27 -7 47 -16 44 -21 -3 -5 0 -9 6 -9 6 0 8 -4 5 -10
-3 -5 4 -10 16 -10 17 0 19 -3 10 -13 -6 -8 -9 -23 -6 -36 2 -12 0 -19 -5 -16
-5 3 -11 1 -15 -5 -3 -5 -1 -10 5 -10 6 0 8 -4 5 -10 -3 -5 1 -10 10 -10 8 0
18 7 21 15 4 8 18 15 33 15 l26 1 -28 24 c-15 14 -25 25 -21 25 4 0 -5 14 -22
31 l-29 31 44 -7 c32 -5 42 -4 36 5 -4 6 -13 9 -19 7 -7 -3 -13 1 -13 9 0 12
15 14 71 12 76 -3 81 -8 64 -57 -6 -18 -4 -27 9 -37 14 -11 14 -14 3 -12 -8 2
-14 -3 -12 -11 1 -7 -2 -19 -8 -26 -8 -9 -8 -15 0 -20 18 -11 11 -26 -8 -16
-29 15 -130 7 -149 -12 -16 -16 -16 -17 -1 -17 9 0 20 5 23 10 3 6 30 10 60
10 l54 0 -24 -25 c-14 -13 -25 -30 -25 -38 0 -9 -10 -13 -30 -12 -39 2 -52 15
-15 15 16 0 26 3 23 6 -4 3 -10 6 -15 6 -4 0 -14 4 -21 10 -15 13 -27 4 -27
-20 0 -13 -9 -17 -42 -17 -23 0 -45 -3 -49 -7 -11 -12 -33 24 -34 55 0 15 5
27 12 27 9 0 9 3 0 12 -24 24 -11 31 13 8 14 -13 23 -30 21 -37 -3 -7 1 -13
10 -13 8 0 12 5 9 10 -3 6 -1 10 5 10 7 0 -2 18 -19 39 l-31 39 25 6 c30 8 32
21 6 35 -14 8 -22 7 -30 -3 -9 -11 -9 -15 1 -19 8 -3 8 -6 2 -6 -6 -1 -17 6
-24 14 -10 12 -9 15 5 15 13 0 15 3 6 13 -8 11 -5 13 19 9 17 -2 30 -8 30 -13
0 -5 7 -9 15 -9 21 0 19 17 -5 30 -11 6 -20 8 -20 5 0 -4 -6 -3 -12 2 -22 13
-40 12 -64 -4 -24 -15 -24 -15 -24 20 0 31 2 35 23 30 27 -7 22 -2 -26 32 -21
14 -43 23 -48 20 -5 -4 -17 -1 -26 4 -15 9 -13 10 14 11 17 0 38 -3 47 -6z
m-1629 -24 c-4 -6 12 -10 40 -10 28 0 44 4 40 10 -4 6 7 9 28 8 19 -2 33 -6
30 -10 -2 -5 9 -13 24 -19 57 -23 72 -32 67 -41 -3 -4 3 -8 13 -8 10 0 41 -12
68 -26 28 -14 40 -24 28 -21 -13 3 -25 2 -28 -3 -7 -12 25 -21 49 -14 21 6 21
6 1 -10 -18 -14 -19 -15 -2 -16 10 0 15 -5 12 -10 -4 -6 -10 -8 -15 -5 -5 3
-24 -2 -42 -11 l-32 -16 24 -13 c23 -12 23 -13 3 -19 -12 -4 -25 -6 -29 -5 -5
1 -12 0 -16 -1 -5 -1 -11 -3 -15 -4 -5 -1 -22 -10 -40 -19 -40 -21 -125 -24
-117 -3 9 22 -14 29 -25 7 -13 -23 -42 -18 -59 10 -13 20 -3 26 15 8 6 -6 19
-9 29 -7 16 3 13 7 -12 20 -17 10 -42 15 -55 12 l-24 -5 23 13 c12 8 19 18 15
22 -4 5 2 5 14 2 26 -8 75 3 67 15 -3 5 8 6 24 3 32 -7 76 11 67 27 -4 5 -11
6 -17 3 -6 -4 -25 -7 -43 -8 -17 0 -38 -6 -46 -12 -20 -16 -46 -24 -54 -16 -3
4 -23 8 -43 9 -20 1 -53 5 -72 8 -19 3 -43 5 -53 6 -10 0 -15 5 -11 11 4 6 -1
17 -11 25 -18 12 -18 13 4 13 18 0 21 3 13 13 -12 14 -50 15 -73 2 -11 -6 -11
-5 -2 5 6 7 9 19 6 26 -3 9 2 14 17 14 11 0 18 -4 15 -10 -3 -5 1 -10 10 -10
9 0 14 3 12 8 -3 4 15 17 39 28 24 12 41 18 38 13 -8 -13 16 -10 51 6 36 16
58 19 50 5z m925 -90 c0 -5 10 -10 22 -10 29 0 18 -10 -18 -16 -19 -3 -24 -1
-15 5 9 5 10 11 3 15 -6 4 -16 -3 -22 -14 -9 -17 -8 -20 12 -21 13 -1 29 -1
36 0 12 2 12 -25 -1 -46 -4 -6 -1 -13 5 -16 8 -3 1 -9 -14 -16 -16 -6 -28 -15
-28 -20 0 -13 50 -23 64 -12 8 6 19 4 34 -8 21 -16 22 -17 3 -17 -11 0 -18 4
-15 7 2 4 0 10 -5 14 -5 3 -14 -2 -19 -11 -6 -11 -14 -14 -23 -8 -20 12 -38
14 -45 3 -3 -5 0 -9 7 -9 8 0 8 -4 -1 -15 -7 -8 -16 -13 -20 -10 -5 3 -11 1
-15 -5 -4 -6 -10 -8 -15 -5 -5 3 -11 1 -15 -5 -4 -6 -12 -7 -18 -3 -7 4 -37 6
-67 5 -34 -1 -50 1 -41 7 11 7 10 11 -5 20 -16 8 -16 10 -3 11 11 0 15 8 14
28 -1 15 -7 26 -12 25 -6 -1 -16 4 -23 12 -6 7 -18 11 -25 9 -7 -3 -18 3 -24
14 -8 16 -6 21 15 31 19 8 24 8 18 0 -5 -9 0 -10 14 -7 13 4 20 2 16 -4 -4 -6
14 -7 52 -3 33 4 61 7 64 7 48 1 70 -4 68 -14 -2 -6 6 -14 17 -16 16 -4 17 -2
7 10 -10 13 -8 15 15 11 26 -4 27 -3 10 11 -11 8 -25 12 -32 10 -19 -8 -25 21
-9 45 16 22 34 28 34 11z m-1025 -157 c-2 -7 8 -20 23 -29 15 -8 20 -13 11
-10 -10 2 -26 -5 -36 -17 -31 -35 -36 -47 -18 -47 9 0 14 4 11 9 -4 5 3 7 14
4 14 -4 20 -1 18 7 -2 7 8 17 22 21 14 4 21 8 15 9 -5 1 0 5 12 10 15 6 36 4
65 -6 23 -8 48 -12 56 -9 7 2 11 1 7 -4 -3 -5 -2 -11 2 -14 5 -2 3 -2 -4 -1
-7 2 -15 -1 -18 -6 -6 -9 31 -15 65 -10 29 4 34 19 9 29 l-24 10 27 0 c15 1
39 6 54 11 15 6 29 8 32 6 3 -3 -8 -10 -23 -16 -27 -10 -27 -11 -9 -25 24 -18
45 -19 39 -2 -6 14 31 40 46 32 5 -4 7 -11 4 -16 -4 -5 -1 -9 5 -9 6 0 8 -5 4
-12 -5 -8 0 -9 14 -6 30 8 28 5 -19 -27 -31 -22 -53 -29 -95 -30 -55 -2 -91
-15 -40 -15 17 0 25 -4 21 -11 -4 -6 -13 -8 -21 -5 -7 3 -16 1 -19 -4 -4 -6
-1 -10 5 -10 7 0 8 -6 1 -19 -6 -10 -7 -22 -3 -26 4 -5 2 -5 -5 -1 -6 3 -14 2
-18 -4 -10 -16 -52 -12 -71 7 -9 10 -22 18 -28 19 -6 0 -17 2 -24 2 -7 1 -11
6 -8 11 3 4 -1 17 -9 27 -11 15 -16 17 -26 7 -11 -11 -10 -13 1 -13 7 0 11 -3
7 -6 -3 -4 -20 7 -37 24 -17 18 -37 29 -45 26 -8 -3 -24 1 -37 10 -19 13 -19
16 -5 16 15 0 16 3 7 20 -6 11 -15 18 -20 15 -5 -3 -14 4 -20 15 -6 11 -15 18
-21 15 -5 -4 -9 8 -9 25 0 26 5 33 30 41 16 6 28 14 25 19 -2 4 11 0 30 -9 19
-9 32 -22 30 -28z m1290 -37 c35 -7 59 -18 58 -24 -2 -8 13 -12 43 -12 27 0
43 -4 39 -10 -3 -5 1 -10 11 -10 13 0 14 -3 5 -13 -6 -8 -8 -17 -5 -20 8 -7
-32 -1 -45 8 -5 3 -12 1 -16 -5 -9 -15 40 -23 101 -15 53 6 55 8 39 24 -15 17
-13 19 22 25 53 8 75 7 69 -3 -4 -5 0 -12 6 -14 7 -3 2 -6 -11 -6 -13 -1 -43
-16 -65 -35 -37 -30 -44 -32 -60 -20 -13 9 -24 10 -37 4 -9 -6 -24 -7 -32 -4
-8 3 -18 1 -22 -5 -4 -7 5 -11 24 -11 16 0 33 -5 36 -10 5 -8 11 -8 19 -1 7 6
21 8 33 5 12 -3 27 1 37 11 23 23 28 15 7 -11 -21 -26 -68 -39 -87 -23 -11 9
-15 8 -20 -5 -3 -9 -4 -22 -1 -30 4 -10 0 -14 -12 -13 -10 0 -18 8 -17 17 1 8
-5 14 -14 12 -8 -2 -12 0 -8 3 4 4 1 20 -8 36 -9 18 -11 29 -4 29 6 0 8 5 4
12 -5 8 -10 7 -18 -4 -10 -13 -16 -12 -51 3 -26 12 -33 19 -20 19 18 0 18 2
-5 19 -27 21 -48 18 -29 -5 13 -16 4 -17 -26 -4 -11 5 -14 9 -7 9 7 1 10 6 7
11 -3 6 -1 10 5 10 6 0 9 4 6 9 -3 4 6 6 19 3 14 -2 22 -8 19 -13 -3 -5 27 -9
66 -9 44 0 69 4 65 10 -3 5 -26 8 -50 6 -30 -2 -46 1 -49 11 -3 7 -9 12 -13
11 -19 -4 -83 15 -94 28 -15 18 4 18 86 0z m-640 -55 c3 -5 1 -12 -5 -16 -11
-7 -10 -65 1 -65 8 0 5 -42 -4 -57 -5 -8 -3 -13 3 -13 6 0 8 -4 5 -10 -3 -5 0
-10 8 -10 9 0 13 9 12 25 -2 14 1 28 6 31 5 3 9 2 8 -3 -4 -25 4 -33 36 -33
34 0 34 -1 18 -18 -10 -11 -21 -17 -25 -15 -4 2 -10 -2 -14 -8 -5 -9 1 -10 19
-5 34 8 44 -9 15 -25 -13 -7 -24 -12 -25 -11 -2 1 -3 -1 -3 -5 -1 -5 -8 -18
-16 -30 -9 -14 -10 -23 -4 -23 6 0 8 -5 4 -12 -5 -7 -11 -5 -21 7 -9 13 -10
21 -2 26 8 4 8 9 1 13 -6 4 -16 -3 -22 -14 -8 -16 -17 -19 -38 -14 -15 4 -34
12 -42 19 -8 7 -22 15 -30 19 -8 3 10 4 40 2 51 -5 53 -4 35 10 -12 9 -31 13
-47 10 -18 -4 -28 0 -32 11 -6 14 -9 14 -31 -1 -13 -9 -30 -16 -37 -16 -7 1
-2 7 12 15 14 8 21 15 15 16 -5 1 -14 2 -20 3 -5 0 -20 7 -31 13 -29 16 -39 4
-13 -15 16 -11 18 -17 8 -22 -14 -9 -58 -3 -75 11 -6 5 -13 7 -15 5 -2 -2 -4
7 -4 20 0 13 4 24 8 24 5 0 5 5 2 11 -4 6 2 13 14 16 11 3 18 9 15 14 -3 5 0
9 6 9 7 0 10 7 6 15 -3 8 -1 15 4 15 5 0 7 6 4 14 -4 11 0 13 15 9 17 -4 20
-2 14 12 -5 15 -3 17 15 12 12 -4 32 -10 45 -13 21 -5 21 -5 3 10 -10 8 -23
13 -27 10 -5 -3 -9 0 -9 6 0 6 10 8 28 4 15 -4 24 -3 20 1 -12 12 21 37 41 30
10 -3 29 -1 42 4 24 9 52 1 64 -18z"/>
<path d="M1205 1091 c-28 -15 -29 -16 -7 -19 12 -2 22 -8 22 -14 0 -5 -7 -7
-16 -4 -9 4 -22 2 -29 -4 -9 -8 -15 -8 -20 0 -3 5 -1 10 5 10 6 0 8 5 4 12 -5
8 -11 6 -20 -6 -7 -10 -16 -16 -21 -13 -12 7 -126 -12 -138 -24 -5 -5 -16 -9
-25 -9 -8 0 -26 -9 -39 -19 -14 -10 -30 -17 -37 -14 -7 2 -15 -1 -20 -8 -7
-13 29 -9 70 7 13 5 17 4 12 -4 -3 -6 3 -13 15 -17 25 -8 39 2 15 11 -25 9
-19 24 10 24 14 0 23 4 19 10 -4 6 7 10 25 10 25 0 31 -4 26 -15 -3 -9 0 -15
10 -15 8 0 13 4 10 9 -7 10 17 21 45 21 11 0 18 4 15 8 -5 9 46 7 102 -3 21
-4 32 -3 28 3 -3 6 5 5 18 -1 13 -7 22 -15 20 -19 -3 -5 2 -8 11 -8 9 0 13 5
10 10 -4 6 6 10 21 10 40 0 17 19 -32 27 -42 7 -93 38 -72 45 7 3 8 7 3 9 -6
3 -23 -1 -40 -10z"/>
</g>
</svg>
