<?xml version="1.0" standalone="no"?>
<!DOCTYPE svg PUBLIC "-//W3C//DTD SVG 20010904//EN"
 "http://www.w3.org/TR/2001/REC-SVG-20010904/DTD/svg10.dtd">
<svg version="1.0" xmlns="http://www.w3.org/2000/svg"
 width="110.000000pt" height="171.000000pt" viewBox="0 0 110.000000 171.000000"
 preserveAspectRatio="xMidYMid meet">
<metadata>
Created by potrace 1.13, written by Peter Selinger 2001-2015
</metadata>
<g transform="translate(0.000000,171.000000) scale(0.100000,-0.100000)"
fill="#000000" stroke="none">
<path d="M217 1597 c-93 -31 -105 -78 -66 -267 24 -117 18 -146 -28 -156 -18
-4 -41 -24 -62 -52 l-34 -46 7 -113 c4 -80 1 -150 -10 -236 -22 -168 -17 -423
8 -441 12 -9 18 -27 18 -55 0 -29 6 -46 20 -58 11 -10 39 -36 63 -59 25 -24
66 -50 102 -63 65 -25 171 -38 160 -21 -3 5 -16 10 -28 10 -25 0 -189 49 -200
60 -10 9 39 0 148 -28 44 -11 106 -23 137 -27 40 -4 55 -10 52 -19 -4 -10 8
-11 58 -4 122 16 223 54 265 100 25 26 53 88 53 115 -1 11 -6 7 -14 -12 -14
-33 -80 -96 -123 -118 -47 -25 -110 -38 -193 -41 -73 -2 -99 5 -68 17 7 3 -6
6 -30 6 -26 1 -41 -3 -37 -9 10 -17 -17 -11 -90 20 -81 35 -100 38 -65 9 l25
-20 -39 16 c-62 24 -102 60 -129 114 -22 46 -26 48 -32 28 -15 -42 -28 235
-26 526 3 320 4 325 68 364 46 28 67 30 33 3 -14 -11 -20 -20 -15 -20 15 0 29
12 48 39 l16 25 11 -25 c8 -20 10 -17 7 24 -2 44 0 48 18 43 123 -30 380 -31
448 -3 l37 16 0 -36 c0 -40 20 -103 32 -103 4 0 8 11 8 25 0 31 4 31 55 2 42
-24 55 -51 34 -71 -9 -8 -10 -8 -4 3 5 9 3 12 -6 9 -8 -3 -14 -11 -14 -19 0
-24 -129 -62 -220 -64 -44 -1 -116 -6 -160 -10 -73 -6 -89 -4 -179 24 -101 32
-139 35 -70 6 84 -35 167 -48 309 -48 133 0 146 2 250 36 l110 35 8 -27 c10
-34 10 -97 0 -113 -4 -7 -8 -22 -8 -32 0 -15 -18 -25 -85 -48 -47 -16 -107
-32 -135 -37 l-50 -9 70 0 c39 -1 97 5 130 13 33 8 63 15 68 15 4 0 7 -76 7
-169 0 -169 0 -170 -25 -189 -42 -33 -144 -47 -347 -47 -193 0 -212 -7 -93
-32 l60 -13 -65 4 c-36 2 -81 11 -100 20 l-35 17 27 -25 c21 -18 43 -26 94
-32 120 -12 359 19 457 61 14 6 17 2 17 -26 0 -19 4 -40 9 -47 12 -19 23 109
29 338 12 435 10 453 -74 501 -71 40 -84 66 -59 117 11 20 18 46 17 57 -1 11
4 56 12 100 l14 80 -29 30 c-16 17 -29 36 -29 42 0 23 -98 36 -291 38 -168 1
-203 -1 -252 -18z m353 -16 c168 -19 211 -32 186 -56 -24 -24 -68 -36 -106
-30 -19 3 -87 1 -150 -5 -146 -14 -275 -5 -301 21 -37 37 -17 61 55 67 31 2
56 8 56 13 0 13 87 10 260 -10z m-101 -131 c80 5 183 12 227 16 l81 7 5 -30
c4 -30 -16 -96 -23 -75 -3 8 -18 8 -57 -2 -35 -10 -122 -15 -260 -17 -175 -2
-212 0 -238 14 -46 24 -56 41 -49 80 l7 34 80 -17 c68 -16 101 -17 227 -10z
m291 -129 c0 -24 -19 -39 -59 -47 -22 -5 -28 -9 -20 -15 46 -28 -196 -49 -332
-29 -94 13 -115 22 -146 59 -34 40 -29 45 39 35 83 -11 405 -8 443 4 50 17 75
14 75 -7z"/>
</g>
</svg>
