<?xml version="1.0" standalone="no"?>
<!DOCTYPE svg PUBLIC "-//W3C//DTD SVG 20010904//EN"
 "http://www.w3.org/TR/2001/REC-SVG-20010904/DTD/svg10.dtd">
<svg version="1.0" xmlns="http://www.w3.org/2000/svg"
 width="110.000000pt" height="157.000000pt" viewBox="0 0 110.000000 157.000000"
 preserveAspectRatio="xMidYMid meet">
<metadata>
Created by potrace 1.13, written by Peter Selinger 2001-2015
</metadata>
<g transform="translate(0.000000,157.000000) scale(0.100000,-0.100000)"
fill="#000000" stroke="none">
<path d="M408 1461 c-9 -6 -68 -20 -131 -30 -163 -28 -206 -55 -208 -131 -1
-19 -3 -27 -6 -17 -2 9 -9 17 -14 17 -18 0 -9 -70 20 -162 23 -72 37 -154 60
-355 17 -144 31 -295 32 -335 0 -40 8 -109 17 -153 l17 -80 64 -31 c130 -65
251 -86 361 -66 32 6 56 7 58 1 3 -8 81 27 114 53 20 15 127 467 148 623 7 55
24 117 42 158 16 37 34 96 39 130 6 34 19 78 30 98 27 51 24 65 -22 126 -45
58 -73 70 -211 94 -38 6 -68 15 -68 21 0 5 -17 16 -37 25 -46 19 -279 29 -305
14z m280 -44 c21 -14 180 -57 223 -61 23 -3 49 -12 58 -21 15 -16 14 -17 -7
-5 -42 21 -33 5 18 -33 70 -52 66 -79 -20 -142 -62 -45 -124 -56 -332 -56
-171 -1 -273 20 -403 80 -101 48 -123 67 -127 110 -3 30 2 38 31 58 41 28 77
39 201 62 98 19 332 24 358 8z m-523 -227 c14 -5 25 -12 25 -15 0 -4 -4 -3
-10 0 -5 3 -10 2 -10 -3 0 -12 139 -58 203 -67 26 -4 54 -14 62 -21 7 -8 29
-14 48 -14 43 0 69 -9 61 -21 -3 -5 13 -9 34 -9 38 0 40 -1 46 -38 8 -55 46
-87 103 -87 38 0 49 5 74 33 18 20 29 43 29 61 0 34 23 61 50 61 11 0 34 9 52
20 18 11 41 20 52 20 16 0 17 -2 5 -17 -12 -15 -12 -16 3 -10 15 5 15 2 1 -46
-25 -89 -57 -124 -125 -143 -64 -17 -61 -17 -52 -3 8 14 -80 5 -163 -17 -70
-18 -133 -17 -158 2 -18 15 -13 16 70 10 59 -4 83 -3 68 3 -11 5 -64 13 -117
17 -52 4 -93 10 -90 15 6 10 -18 15 -101 24 -43 4 -76 15 -118 40 -32 19 -64
35 -72 35 -18 0 -35 52 -42 129 l-6 64 26 -7 c14 -3 38 -11 52 -16z m625 -125
c-10 -12 -10 -19 -2 -27 41 -41 -37 -124 -83 -90 -25 18 -66 84 -61 97 4 10
-2 16 -17 17 -12 1 19 5 68 8 50 3 94 7 99 8 5 1 3 -5 -4 -13z m-650 -91 c0
-13 5 -24 10 -24 6 0 10 7 10 16 0 13 3 14 28 0 15 -8 45 -21 67 -30 22 -8 32
-15 22 -15 -10 -1 -28 4 -40 10 -18 9 -20 9 -10 -2 7 -7 43 -16 80 -20 43 -5
93 -19 137 -40 54 -25 82 -32 135 -33 88 -1 185 11 268 34 37 10 69 17 71 16
7 -8 -16 -81 -26 -79 -6 2 -42 -4 -79 -13 -38 -9 -114 -17 -170 -18 -55 0 -99
-4 -97 -7 8 -13 94 -29 151 -28 32 0 90 8 128 19 39 10 72 16 75 13 2 -2 -9
-57 -25 -121 l-30 -117 -55 -18 c-59 -20 -177 -27 -225 -14 -42 12 -20 -8 25
-22 35 -11 35 -11 -10 -6 l-45 5 29 -16 c38 -21 140 -14 214 15 29 12 55 21
57 21 10 0 4 -49 -15 -118 -11 -39 -20 -87 -20 -105 0 -43 -28 -73 -98 -105
-72 -32 -259 -45 -281 -18 -7 9 -25 16 -39 16 -39 0 -105 22 -128 42 -11 10
-25 18 -30 18 -13 0 -31 123 -45 310 -6 80 -21 212 -35 293 -27 167 -28 181
-14 172 6 -3 10 -17 10 -31z"/>
</g>
</svg>
